<svg xmlns="http://www.w3.org/2000/svg" viewBox="0 0 374.32 306.11"><defs><style>.cls-1{fill:#fcd404;}.cls-1,.cls-3,.cls-4,.cls-5{fill-rule:evenodd;}.cls-2{fill:#043454;}.cls-3{fill:#95b3c8;}.cls-4{fill:#49728f;}.cls-5{fill:#6999bc;}</style></defs><title>Asset 1</title><g id="Layer_2" data-name="Layer 2"><g id="svg"><g id="svgg"><path id="path0" class="cls-1" d="M114,52.11c-19.8,2.2-32.5,22.3-27,42.9,6.1,23.3,34.6,30.9,55.5,14.9l1.7-1.3V82.81h-26.8v6.8h19.4v15.6l-1.5,1c-21.2,14.4-46.8-3.1-40.9-27.8,4.5-18.6,25.9-25.9,40.7-13.8l2,1.6,1-1.1c.5-.6,1.6-1.9,2.5-2.9l1.5-1.8-.8-.7c-7-5.8-17.3-8.7-27.3-7.6m145-.2c-18.1,1.9-29.8,15-29.8,33.3,0,30.2,33.2,44,56.2,23.3L287,107l-2.4-2.4c-2.7-2.7-2.8-2.8-3.9-1.6-15.9,17.3-43.7,5.9-43.7-18,0-23.2,23.4-34.1,41.9-19.4l2.6,2.1L284,65c3-3.2,3-2.7.4-4.9a34.66,34.66,0,0,0-25.4-8.2m-94.1,21.3c0,21.8.1,23.9,1.8,28.7,3.7,10.8,11.9,16.1,24.9,16.1,12.1,0,19.2-3.9,23.6-12.9,3-6,2.9-5.1,3-30l.1-21.9h-7.4l-.1,21.3c-.1,23.5-.1,23.1-2.3,27.6-6.1,12.5-27.4,12.5-33.5,0-2.4-5-2.4-4.8-2.6-28l-.1-20.8h-7.4v19.9"/><path class="cls-2" d="M55,246.41a52.31,52.31,0,0,0,9.4,2.8c1.1.2,2.7.6,3.7.8s2.9.6,4.2.8,3.6.6,5,.8,3.7.6,5,.8c2.2.3,3.7.7,7.9,1.6,4.4,1,4.5.8,1.3-2.5A60.57,60.57,0,0,1,80.16,233c-.3-.8-1-2.6-1.5-4s-1.3-3.5-1.6-4.6a20.85,20.85,0,0,0-.8-2.4,20.85,20.85,0,0,1-.8-2.4c-.3-1.1-1.1-3.2-1.6-4.8s-1.3-3.5-1.6-4.4a86.24,86.24,0,0,0-6.2-12,119.64,119.64,0,0,0-7.1-10.2,29.92,29.92,0,0,1-2.2-2.6c-1.7-2.1-1.7-2.1-1.7-1.7a6.42,6.42,0,0,0,.5,1.6,6.62,6.62,0,0,1,.6,2.2c.1.5.4,2,.6,3.2s.6,2.9.8,3.7a28,28,0,0,0,.6,2.8,39,39,0,0,1,.7,4c.7,5.1,2.3,14.1,2.8,15.9.3,1,.6,2.4.8,3.1.7,3.1,4.1,10.4,5.3,11.5a1,1,0,0,1,.5.7c0,.9,3.2,4.8,7,8.7,2.9,2.9,4.2,4.4,3.8,4.5-.6.1-5.5-3.1-9.6-6.4-5.4-4.4-10.2-7.3-18.3-11.2-20.1-9.6-26.8-14-32.4-20.9-1-1.3-2.2-2.7-2.6-3.1a15.83,15.83,0,0,1-1.6-2.2c-1.1-1.9-1.3-1.7-.6.7a16.64,16.64,0,0,1,.5,2.1c-.3,1.2,5.5,12.3,8,15.2a18.2,18.2,0,0,1,1.4,1.9c2,3.8,13.8,14.9,18.7,17.6a9.06,9.06,0,0,1,1.9,1.3A55.86,55.86,0,0,0,55,246.41Z"/><path class="cls-2" d="M6.66,148.31a1.08,1.08,0,0,1,.3.7c0,.6,2.2,4.3,3.1,5.3a7.64,7.64,0,0,1,1.1,1.6c.3.9,4.6,6.5,9.6,12.4a103.84,103.84,0,0,1,7.3,9.5,18.24,18.24,0,0,0,2.2,2.9l1,1.1-.2-1.6c-.9-8.6-.5-13.9,1.3-20.5.6-2.2,1.3-4.8,1.6-5.7s.7-2.3.9-3.1.6-2.1.9-2.9.6-2.1.9-2.9c.8-2.5,2-6.9,2.4-8.6.2-.9.5-2.2.7-2.9a36.25,36.25,0,0,0,1.2-7c0-.8.1-1.5.3-1.5s.8-2.8,1.8-10.4c.6-3.9.7-10.8.2-11.1-.2-.1-.3.1-.3.5s-.1.7-.3.7-.5.8-.9,1.9a45.64,45.64,0,0,1-4.5,9.2c-.8,1.3-2.2,3.4-3,4.7-9.1,14.3-13,31.7-9.3,41.7.8,2.1.3,4-.5,2.1a64,64,0,0,1-2.2-8.7c-.4-2.4-.6-3.2-1.8-8.3-1.5-6.1-3.1-10.5-7.4-19.9-5.7-12.3-7.4-17.9-8.1-26.4-.3-4.3-.4-4.7-.8-3.9a12.62,12.62,0,0,1-.7,1.6c-2.2,5.1-3.4,17.4-2.5,25.2C2.06,133.51,5.16,146.71,6.66,148.31Z"/><path class="cls-2" d="M36.76,211.31a8.63,8.63,0,0,1,1.8,1.2c.8.6,3.6,2.5,6,4.1s5.7,3.6,7.2,4.6c3.2,2,6.2,3.7,6.4,3.5s-2.3-6.4-4-9.5a58.64,58.64,0,0,1-2.4-10c-1.1-7.1-1.2-7.8-2.5-22-1-11.1-2-19.2-2.7-21.2a34.65,34.65,0,0,1-.8-4c-.5-3.6-3-11.4-3.7-11.4a21.25,21.25,0,0,0-.3,3.5,91.53,91.53,0,0,1-2.3,14.8c-.3,1.2-.6,3-.8,3.9s-.5,2.9-.8,4.5c-2,10.5.3,23.7,5.5,32.1,1.4,2.3,1.6,3.7.3,2.3s-4.4-5.7-7.9-11.1c-2.9-4.5-5.6-7.6-12.7-14.8-3.4-3.5-7.1-7.3-8.2-8.6s-2.3-2.5-2.5-2.7c-.8-.8-3.8-4.7-5.3-6.8C5,160.71,2,154,2,152.31a.53.53,0,0,0-.6-.6c-1.6,0-.2,14.4,2.1,20.9,1.7,4.8,2.7,7.3,4,9.4.7,1.2,1.3,2.4,1.4,2.5.8,2,6,8.4,10.1,12.4C23.46,201.81,35.46,211.31,36.76,211.31Z"/><path class="cls-2" d="M109,272l4.7-.9c.9-.2,14.8-3.7,18-4.6a46.7,46.7,0,0,1,7.2-1.6c3.5-.4,3.5-.9.2-1.8-8.9-2.4-14.9-5-19.7-8.5-1.2-.9-2.9-2-3.6-2.5a17.54,17.54,0,0,1-1.8-1.5,32.36,32.36,0,0,0-3.5-3.6c-1.7-1.6-5.7-5.3-8.8-8.3-9.4-8.9-15.4-14-18.8-15.9l-1.6-.9,1.7,3.2c.9,1.8,3.3,6.3,5.2,10.1,5.4,10.5,7.5,13.7,11.6,17.8,2.1,2.1,5.4,4.5,6.2,4.5a1.2,1.2,0,0,1,.8.5c.5.6,5.3,2.5,7.6,3.1,3,.7,5.2,1.5,5.2,1.8,0,.6-2.3.5-5.5-.2-8.1-1.8-12.8-2.4-25.8-3.2s-21.7-2-27-3.6c-1.2-.4-2.6-.8-3.2-1-3.2-1-9.9-4.7-13.1-7.1-2.1-1.6-2.2-1.3-.4,1.2a19.92,19.92,0,0,1,1.2,1.9c.8,1.5,5.1,6,8.4,8.8C69.46,272.51,86.46,276.31,109,272Z"/><path class="cls-2" d="M360,127.41a94.53,94.53,0,0,0-7.7,23.6c-.4,1.8-.9,4.3-1.2,5.5s-.6,2.8-.8,3.4c-.4,1.7-.9,2.9-1.3,2.9s-.3-1.4.7-5.5c1.1-4.6,1-12.2-.2-17.5-1-4.7-4.8-12.9-8.3-18-1.3-1.8-5.5-8.9-5.5-9.1a8.93,8.93,0,0,0-.8-1.3,11.14,11.14,0,0,1-.8-1.2c0-.2-1.4-3.3-3-6.7l-1-2.1-.2,1.9c-.6,5.8,3.3,27,7.3,39.6.3.8,1,3.1,1.6,5.2s1.7,5.4,2.4,7.4c1.9,5.8,2,6.7,1.9,15.5-.1,9-.1,9,2.4,5.3.9-1.4,3.2-4.4,5-6.7,8.8-11.2,11.4-14.6,11.9-15.4a34.88,34.88,0,0,0,2.8-4.4c0-.1.6-1.4,1.3-3,7-15.1,8.6-36,3.8-50.9-.7-2.1-1.6-3.7-1.6-2.9v2.5C369,103.61,366.36,113,360,127.41Z"/><path class="cls-2" d="M295.56,14.21c1.9,2.9,6.1,8.4,9.1,12.1,6.6,8,25.5,25.1,23.3,21a1.9,1.9,0,0,1-.3-.9,83.1,83.1,0,0,0-3.1-10.8c-5.5-15.4-15.3-25.5-29.8-30.8-.9-.3-2.6-1-3.9-1.4s-2.9-1-3.7-1.3a8.84,8.84,0,0,1-2-.7c-.3-.1-.6-.1-.6.1a50.88,50.88,0,0,0,4.5,5A70.17,70.17,0,0,1,295.56,14.21Z"/><path class="cls-2" d="M333.06,45.11c1.2,5,3.4,13.3,4.1,15.4a60.62,60.62,0,0,0,3.1,7.9c.3.4.4,2,0,1.7-.1-.1-1.1-1.8-2.1-3.7-3.5-6.7-8.7-11.7-20.5-19.8a64.11,64.11,0,0,1-7.5-5.7c-3.4-2.8-3.8-3.2-5.8-6-2.6-3.5-2.9-2.9-1.4,2.3,2.8,9.7,9.1,18.3,18.3,24.8.2.1,1.1.9,2.1,1.7s2.5,2.1,3.5,2.8c6.8,5.1,12.5,10.4,15.8,14.9a25.39,25.39,0,0,0,2.1,2.6l.7.8v-7.5c0-4.1.1-11.3.3-16.1.2-6.4.2-9.3-.1-11.2a50.52,50.52,0,0,0-1.6-7.4,12,12,0,0,1-.6-1.8c-.8-3-4.1-8.4-7.6-12.7-3.1-3.7-10.3-8.9-13.3-9.4-.5-.1-1.3-.3-1.6-.4s.4.9,1.7,2.3C328.16,27,329.46,30.21,333.06,45.11Z"/><path class="cls-2" d="M13.06,106.51c.3.8.8,2.2,1.1,3.1s.8,2.2,1.1,2.9a118.83,118.83,0,0,1,5.3,16.3,11.69,11.69,0,0,0,.6,2l.4.9.9-2.4c3.7-9.8,6-13.8,14.9-26.3,2.2-3,4.2-6,4.5-6.6a7.64,7.64,0,0,1,1-1.5,49.8,49.8,0,0,0,4.3-7.1,1.2,1.2,0,0,1,.5-.8,13,13,0,0,0,1.6-3.5c.6-1.7,1.3-3.4,1.5-3.8a46.74,46.74,0,0,0,2.5-9.4l.2-1.9-1.6,1.7a118.69,118.69,0,0,1-8.7,8.6c-9.6,8.8-18.3,19.9-18.3,23.3a.78.78,0,0,1-.3.7,1.87,1.87,0,0,0-.5,1.1c-.1.5-.4,2.1-.7,3.6s-.7,3.5-.8,4.4c-.1,1.1-.3,1.6-.7,1.6-.6,0-.5-3.7.1-9.2.5-4.5.5-16.6,0-19.7-2.7-16.3-2.6-28.8.1-36,.6-1.5.6-1.5-.9,0-3.4,3.6-9,14.6-10.3,20.5a13.53,13.53,0,0,1-.7,2.5c-1.5,3.8-1.7,19.5-.3,25.2C10.86,100,12.26,104.41,13.06,106.51Z"/><polygon class="cls-2" points="243.85 186.21 243.96 163.71 261.25 186.11 278.56 208.51 283.56 208.61 288.45 208.71 288.45 144.31 276.75 144.31 276.75 166.01 276.65 187.81 259.86 166.01 243.06 144.31 232.46 144.31 232.46 208.71 243.75 208.71 243.85 186.21"/><path class="cls-2" d="M332.46,79.41c-4-3.6-8.3-7.6-9.4-8.9s-2.7-3-3.3-3.7l-1.2-1.3v1.2a5,5,0,0,0,.3,1.9c.2.4.7,2.1,1.2,3.7a62.79,62.79,0,0,0,3.3,8.8c.4.9.8,1.8.8,1.9,0,.8,5.6,9.5,9.1,14.2,9.2,12.2,10.3,13.7,12.7,17.8a53.09,53.09,0,0,1,5,11c.9,3.2,1.8,4.8,1.8,3.2a2.61,2.61,0,0,1,.3-1.1,40,40,0,0,0,1.5-5.9c.3-1.6,2.8-9.5,3.4-10.8.7-1.5,2.9-7.3,3.5-9.1a72.06,72.06,0,0,0,2-8.3c.8-3.5.8-14.5,0-19.6a62.24,62.24,0,0,0-5.6-18.5c-1.8-3.8-8.7-13.5-8.7-12.3a5.84,5.84,0,0,0,.5,1.3c2.4,4.7,3.5,15.2,2.4,24.7a174.89,174.89,0,0,0-.1,39.6c.2,1.4.1,1.7-.2,1.6-.5-.2-.8-1.4-1.8-6.7-.3-1.7-.7-3.3-.8-3.6s-.4-.9-.7-1.3a14.7,14.7,0,0,1-1.4-3.2C346.26,93.11,341.36,87.41,332.46,79.41Z"/><path class="cls-2" d="M27.26,82.21c-.6,5.8,0,6.6,2.1,3.2,2.6-4.4,8.9-10.8,15-15.4,8.2-6.2,16.2-14,18.4-18a22.59,22.59,0,0,1,1.7-2.6c1.9-2.6,5.6-11.4,5.1-12.2a4.11,4.11,0,0,1,.2-1.7c.5-2.2.2-2.2-1.6.3a50.19,50.19,0,0,1-8.4,8.8c-3.1,2.5-2.3,1.9-8.2,6.1-9.4,6.7-16.2,14.3-18.7,20.9-.3.8-.4.9-.6.4s.4-2.9,2-7.3a14.51,14.51,0,0,0,.8-2.7c-.1,0,.1-.4.3-.9.8-1.2,2.5-7.5,3.3-11.5.2-.9.5-2.6.8-3.9s.7-3.3,1-4.5c1.5-7.6,7.6-19.6,9.8-19.6a.27.27,0,0,0,.3-.3c0-.4-.6-.4-1.3,0a13.48,13.48,0,0,1-2.1.8c-5.9,2-15.1,12-17.9,19.6-2.5,6.7-3.3,18.7-2.2,31.2A42.64,42.64,0,0,1,27.26,82.21Z"/><path class="cls-2" d="M169.16,197.31c8.8,16.7,38.8,16.4,47.7-.4,3.3-6.2,3.5-8.4,3.5-32.7v-20h-11.2v18.9c0,23.2-.2,25.3-3.1,29.6-5.1,7.7-19.2,8.2-25.2,1-3.6-4.4-3.8-5.6-3.8-29.5v-20h-11.7l.1,21.3C165.76,190.31,165.76,190.81,169.16,197.31Z"/><path class="cls-2" d="M45.56,44.21a4.93,4.93,0,0,0-.5,1.8c0,.4-.1.9-.3,1-.4.2-.4,2.1-.1,2.1A125.47,125.47,0,0,0,56.06,40c.1-.1,1.3-1.3,2.7-2.6,4.3-4,8.6-9.2,10.5-12.7a7.36,7.36,0,0,1,1.1-1.6A18,18,0,0,0,72,21a154.11,154.11,0,0,1,11.2-14.1c3.4-3.9,3.6-4.3,1.1-3.1a5.84,5.84,0,0,1-2,.6,2.66,2.66,0,0,0-1.2.3c-.3.2-2.4,1.1-4.6,2-4.1,1.8-8.7,4.1-9.9,5.1a9,9,0,0,1-1.1.7c-2.5.9-8.6,6.9-11.7,11.5-3.9,5.9-5.2,8.9-7.5,17.7A12.64,12.64,0,0,1,45.56,44.21Z"/><path class="cls-2" d="M102.06,163.21,112,178c5.4,8.2,10.1,14.8,10.3,14.7s4.7-6.6,10.1-14.6l9.7-14.5.1,22.5.1,22.5h11.6v-64.4l-6.2.1-6.2.1-9.5,14.8c-7.6,11.9-9.6,14.7-9.9,14.4s-4.6-6.9-9.7-14.9l-9.3-14.5H90.86v64.4h11.3v-45.4Z"/><path class="cls-2" d="M360.26,198c-.2,0-.7.5-1.1,1.2-1.9,3.6-12.4,14.6-13.9,14.6a5.59,5.59,0,0,0-1.4.9,29,29,0,0,1-3.8,2.4c-1.4.8-2.8,1.7-3.1,1.8s-2.6,1.4-5.2,2.7-7.2,3.7-10.4,5.3c-6.5,3.3-10.7,5.8-11.1,6.4a.75.75,0,0,1-.7.5c-.6,0-3.4,2-4.9,3.4a13.74,13.74,0,0,1-1.8,1.5,33,33,0,0,0-3.4,2.8c-2.7,2.3-4.2,3.3-4.6,2.9a21.46,21.46,0,0,1,3.2-3.6c3.4-3.6,6.3-7.2,7.3-9.1a15.77,15.77,0,0,1,1-1.6c3.2-3.2,6.6-14.7,8.2-27.6.4-3.2,1.4-9.3,1.9-11.5.2-.7.5-2.3.8-3.6s.7-2.8.8-3.4a12.2,12.2,0,0,1,.5-1.7c.4-.8-.2-.7-1.1.3-1.6,1.7-5.5,7.3-5.5,7.8,0,.2-.1.4-.3.4-1.8.7-8.9,14.1-10.7,20.2a9.72,9.72,0,0,1-.7,1.9c-.2.4-1.2,3.5-2.4,7-3.3,9.9-3.7,11.1-5.9,15.8a12.83,12.83,0,0,0-.8,2,67.13,67.13,0,0,1-4.1,7,55.65,55.65,0,0,1-6.2,7.7c-1.4,1.1-.1,1.8,1.3.7a2.77,2.77,0,0,1,1.6-.5,8.18,8.18,0,0,0,2.1-.3c1.6-.4,5.4-1.2,7.5-1.6,1-.2,2.9-.5,4.2-.8s3.4-.7,4.7-.9c16.3-2.8,28.6-9.3,41-21.7,7.3-7.3,14.4-18.3,15.5-23.9a8.34,8.34,0,0,1,.8-2.4C360.46,200.11,360.76,198,360.26,198Z"/><path class="cls-2" d="M371.66,151c-2.5,8.3-7.2,14.9-19.2,27-6,6.1-8.7,9.2-11.9,13.8-.8,1.1-2.2,3.2-3.2,4.5-7.8,11.2-7.8,11.2-7.8,9.9a3.88,3.88,0,0,1,.6-1.4,43.15,43.15,0,0,0,5.1-11.9c1.4-5.6,1.5-5.8,1.4-12,0-3.4-.2-7-.3-7.9s-.4-2.3-.5-2.9c-.3-1.6-.8-4.4-1.3-6.8a83.14,83.14,0,0,1-2.1-15.5c0-4.9-.7-4.7-2.5.8-2.8,8.6-4,16.4-5.2,33.3-.8,10.7-1.3,16.1-2,19.4-1,5.3-1.3,6.4-1.9,8.7a81.34,81.34,0,0,1-2.9,8.4,31.53,31.53,0,0,0-1.8,4.6c.2.2,11.2-7.3,11.7-7.8a10,10,0,0,1,1.8-1.1c.8-.4,2.3-1.3,3.2-1.9s3.7-2.4,6-3.9c7.9-5.1,20.8-16.6,20.9-18.6,0-.2.4-.6.8-1,6.4-6,12.6-22.2,13-33.7C373.76,147.21,373.16,146,371.66,151Z"/><path class="cls-2" d="M286.06,280.51c-7.1,1.4-17.9,1-24.1-1-1.9-.6-7.2-2.6-8.3-3.1a15.71,15.71,0,0,0-2.3-.9c-1.7-.6-9-3.7-12.7-5.4a40.73,40.73,0,0,0-6.8-2.7,70.7,70.7,0,0,0-18.3-3.6c-5.6-.5-5.6-.5-10.2-.1-6.8.6-11,1.4-13.5,2.6-1.6.8-2.3.7-6.2-.5-7-2.2-22.5-2.5-29.5-.5-.6.2-2.3.6-3.7,1a72,72,0,0,0-9.5,3c-1,.4-2.9,1.1-4.2,1.6s-3.1,1.2-3.9,1.6-3,1.3-4.8,2.1-4.2,1.8-5.2,2.3-2.5,1.1-3.4,1.5c-12.6,5.7-29.3,5.7-42-.1a12.3,12.3,0,0,0-3-1.1c-.3.3,1.5,2.5,2.3,2.8a3.75,3.75,0,0,1,1.4,1.2c2,2.7,11.9,8,19.9,10.7,6.5,2.2,17.6,2.6,24.2,1,3.5-.8,4.9-1.3,5.1-1.6s.5-.3.9-.3c3.5,0,13.3-5.3,24-12.9,11.8-8.4,17.3-10.5,24.5-9.4,3.6.6,3.4,1-1.8,3.5-13.6,6.7-37.3,25-35.9,27.6.4.8,4.9,4.5,5.5,4.5a1,1,0,0,1,.7.5c.6.8,1.4.2,3.7-2.6a128.65,128.65,0,0,1,18.3-17.6c7.2-5.6,14.3-10.1,19.4-12.1l1.4-.6,2.5,1.2a120.52,120.52,0,0,1,18.2,12.2c1.3,1.1,3.4,2.8,4.5,3.8,2.4,2,6.3,5.8,12.1,11.6a31.43,31.43,0,0,0,4.3,4c1.3,0,7.3-5,7.3-6,0-1.4-18.6-16.4-22.3-18a2.8,2.8,0,0,1-1.2-.8c-.5-.6-8.4-5.3-12.9-7.5-5.8-3-5.5-3.4,2.5-3.4,6.8,0,8.4.6,16.8,6.5,11.2,7.8,12.8,8.8,18.1,11.3s11.7,4.7,14.2,4.7c.5,0,.9.1,1,.3.7,1.1,13.5,1.6,17.8.7,11.5-2.2,21.4-7.4,28.3-14.7l2.1-2.2-1.6.8A94.67,94.67,0,0,1,286.06,280.51Z"/><path class="cls-2" d="M328.36,246.61c-6.8,5.2-13.2,7.8-22.9,9.6-5.1.9-10.3,1.5-22.8,2.4-3.6.3-5.8.5-13.4,1.6-1.1.2-3,.5-4.4.8-2.3.5-4.8.9-7.7,1.4s-1.2-1,2.4-2a28.64,28.64,0,0,0,8-3.3,6.82,6.82,0,0,1,1.9-1.1c.7,0,4.1-2.6,6.4-4.9,3.3-3.3,6.6-8.7,11.1-18.5,1.7-3.7,2.4-5.2,4.3-8.7,1.6-3,1.7-3.5.6-2.9a13.28,13.28,0,0,0-1.6,1.2,3.21,3.21,0,0,1-1.2.9c-.9,0-10.3,8.6-22.2,20.2-4.9,4.8-10,9.5-11.3,10.5s-2.5,1.8-2.6,1.9c-.9,1-10.3,4.8-15.5,6.3a24.73,24.73,0,0,0-4,1.4c-.4.4-.4.4,3.9,1.2,2.8.5,4.9,1,13.1,2.9,11.8,2.8,15.3,3.6,18.9,4.1,1.5.2,3.6.5,4.5.7,16.7,2.8,36.1-3.8,49.5-17,4.3-4.3,8.7-10.1,8.1-10.8A12.36,12.36,0,0,0,328.36,246.61Z"/><path id="path2" class="cls-3" d="M283,.31c-.6.4-.8.1,5.6,6.6,3.8,3.9,8.3,9.6,8.3,10.6,0,.1.3.4.6.7a16.33,16.33,0,0,1,1.7,2.1,151,151,0,0,0,18.6,20.3c9.5,8.3,12.5,10.1,11.1,6.9-.2-.5-.6-1.6-.9-2.5s-.6-1.3-.6-1a9.71,9.71,0,0,0,.7,2.5c1.5,3.6,0,2.7-10.5-6.5a136.59,136.59,0,0,1-22.5-26c-1.4-2.2-6.6-8-10.5-11.6-1.6-1.5-1.6-2.5,0-1.7.7.4.7.3.1-.1-.6-.7-1-.8-1.7-.3m2.6.8a27.4,27.4,0,0,0,4,1.5c.6,0-.1-.4-1.8-1s-2.5-.8-2.2-.5m-198.7.8A31.75,31.75,0,0,1,83,3.51c-.6.2-1.6.6-2.1.8s-1.4.6-2,.8-1,.5-.9.5a5.56,5.56,0,0,0,1.9-.6,20.55,20.55,0,0,1,2.6-.9,25.38,25.38,0,0,0,2.5-1c2.7-1.2,3.2-.8,1.2,1.1-3.9,3.7-15,17.7-16.8,21-.6,1.1-.2.8.8-.7,1.7-2.4,4.8-6.6,5-6.7s.3-.3.3-.4c0-.7,5.3-7.1,9.7-11.7,2.5-2.6,3.3-3.8,2.4-4a1.08,1.08,0,0,0-.7.2M293.46,4a6.06,6.06,0,0,0,2.1.6c.1-.1-.1-.3-.4-.4a15.62,15.62,0,0,1-1.7-.7,2.57,2.57,0,0,0-1.5-.4c-.3.1.4.5,1.5.9m6.6,2.9c2.4,1.2,4.6,2.3,4.8,2.5.4.3.4.3,0-.2a55.6,55.6,0,0,0-8.8-4.4,28.81,28.81,0,0,0,4,2.1m-225.2-.1c-1.1.5-2,1-1.9,1.1a8.77,8.77,0,0,0,2.4-1c2.8-1.3,2.4-1.4-.5-.1m-4,1.9c-.7.4-1.2.7-1.1.8a10.35,10.35,0,0,0,2.8-1.4c.4-.3-.6,0-1.7.6m-5.1,3.1c-4.4,3-4.5,3-6.8,5.2-5.4,5.1-12.8,18.2-12.7,22.6,0,.8.5-.5,1.2-3,2.7-10.1,9.7-19,19.4-25.2,1.3-.8,2.3-1.5,2.3-1.5.2-.5-.6,0-3.4,1.9m240-1.9c.2.1,1.4,1.1,2.8,2.2a47.92,47.92,0,0,1,5.5,5c2,2.1,2.4,2.4,1.2,1-2.8-3.4-8.6-8.4-9.6-8.4-.1,0,0,.1.1.2m13.1,7.9a20.29,20.29,0,0,0,2.6,2.8,32.16,32.16,0,0,1,6.2,8.3c.4.8.8,1.4.9,1.2.3-1-4.3-7.4-7.5-10.4-1-.9-1.4-1.6-1.2-1.7.4-.4,5.1,1.4,6.9,2.6s3.3,2,2,1c-3.3-2.6-9.9-5.2-9.9-3.8m-269.4,2.7a22.5,22.5,0,0,0-3.4,1.6c0,.2.7-.1,3-1.1,2.9-1.3,3.1-.9.9,1.3-3.2,3.1-9.6,14.4-7.5,13.1a.78.78,0,0,0,.3-.7c0-1.9,4.1-8.7,7.1-11.8,2.9-2.9,2.8-3.7-.4-2.4m268,.7c.3.5.9,1.3,1.3,1.9s1.2,2,1.9,3.2,1.4,2.4,1.5,2.6c.6.6-2.3-4.7-3.7-6.7-1.2-1.9-2-2.6-1-1m-273,1.7c-5.3,3.5-14.9,13.7-13.8,14.8.1.1.6-.6,1.1-1.6,2.2-3.9,7.9-9.7,12.4-12.7a6.55,6.55,0,0,0,1.5-1.2,5.23,5.23,0,0,0-1.2.7m286.4.4a52.38,52.38,0,0,1,6,6,74.2,74.2,0,0,1,5,7.4c.3.5.5.8.6.8.2-.2-.9-2.2-2.8-4.9a39.68,39.68,0,0,0-8.9-9.6c-.9-.7-.8-.6.1.3m-263.7,5.1a72.81,72.81,0,0,1-5.6,6.8c-6.1,6-17.6,15.5-17.9,15a4.42,4.42,0,0,1,.5-2,4.12,4.12,0,0,0,.5-1.9c-.1-.1-.3.1-.4.4a15.62,15.62,0,0,1-.7,1.7c-1.2,2.9-.3,3,3,.2,1.4-1.2,4.4-3.7,6.6-5.5,4.9-4,10.2-9.2,12.2-11.9.8-1.1,1.5-2,1.6-2.1a21.19,21.19,0,0,0,1.8-2.9,19.57,19.57,0,0,1-1.6,2.2m255.3,1.1a13.23,13.23,0,0,0,.7,1.8,84.51,84.51,0,0,1,3.2,9.1,6.06,6.06,0,0,0,.9,2.2c.2-.2.1-.4-1.9-6.2-1.1-3.5-2.9-7.5-2.9-6.9m-21.5.9a3.06,3.06,0,0,0,.1,1.6c.2.7.5,1.9.7,2.8a41.83,41.83,0,0,0,12.9,22.3c4.1,3.9,3.5,3.4,12,9.9,8.2,6.3,14,12.1,17.3,17.2,1.4,2.2,2.8,3.3,2.8,2.2,0-.2-.3-.3-.6-.3a1.56,1.56,0,0,1-1.1-.8c-3.9-6.1-8.9-11.3-17.8-18.2-18-13.9-21.9-19.1-25.4-33.4-.9-3.6-.5-3.6,2.3.5a44.86,44.86,0,0,0,10.4,9.8,30.69,30.69,0,0,1,2.7,2,15.45,15.45,0,0,0,2,1.4c1.2.7-.4-.8-2.2-2a50.53,50.53,0,0,1-13.3-12.5c-1.9-2.6-2.4-3.2-2.8-2.5m27.6.3a18.52,18.52,0,0,0,1.6,4.2,13.41,13.41,0,0,0-1.3-4c-.2-.2-.3-.3-.3-.2m-258.8,1a4.65,4.65,0,0,0-.8,1.6c-1.4,3.1-5.6,7.8-10.2,11.5-3.8,3.1-4,3.3-3,2.7,3.3-1.7,11.7-10.4,13.4-13.8,1.4-2.8,1.7-1.6.8,2.7-.4,1.8-.8,3.6-.9,4-.4,1.7.2.3.8-1.9,1.3-4.7,1.2-8.5-.1-6.8m260.5,4.7c.1.5.6,2.4,1,4.2s1,3.8,1.2,4.5c.4,1.7,1.8,7,2.4,9.2.3,1,.8,2.8,1.1,4.1a16.83,16.83,0,0,0,1,3c1,1.8,0,1.4-1.9-.9-3.7-4.4-13.8-13.2-14.4-12.6-.1.1.8.9,2,1.7,5.6,4.1,12,10.2,13.9,13.3.9,1.5,1.2,1.8,1,.8-.2-.7-.2-.7.1-.2a1.08,1.08,0,0,1,.2.9c-.2.3,1.4,3.7,1.6,3.5a12.33,12.33,0,0,0-.7-2.4c-.8-2.1-1.6-4.8-3.1-9.5-.3-1.2-1.1-4.2-1.8-6.8-1.5-6-1.3-5.4-2.4-9.7-.9-3.6-1.5-5.2-1.2-3.1m-289,2.2a12.63,12.63,0,0,0-.6,3c.1.1.3-.3.4-.9a12.71,12.71,0,0,1,.7-2.4,5.81,5.81,0,0,0,.4-1.9c-.1-.4-.5.7-.9,2.2m301.3-.6c0,.6.9,2,.9,1.4a1.82,1.82,0,0,0-.5-1.1c-.2-.4-.4-.5-.4-.3m-313,1.5c-1.4,3.2-2.4,6.5-2.2,7.1.1.2.3-.3.6-1.3a31.64,31.64,0,0,1,1.2-3.7c.4-1.1.9-2.3,1.1-2.7.5-1.3-.1-.8-.7.6m16.2,2.1a16.33,16.33,0,0,1-.7,2.3,4,4,0,0,0-.3,1.5c0,.5.2.3.4-.6.7-2.1,1.3-4.4,1.1-4.5a3.64,3.64,0,0,0-.5,1.3m297.7-1.4a10.71,10.71,0,0,0,.5,1.6,47.56,47.56,0,0,1,2.2,11.1c.1.5.1,0,.2-1.3a28.17,28.17,0,0,0-.2-3.4c-.2-.6-.5-2.3-.9-3.6a15.92,15.92,0,0,0-.8-2.7,1.4,1.4,0,0,1-.3-.9c0-.3-.1-.7-.3-.8s-.4-.1-.4,0m-275.1,2.2c-3.6,9.3-11.4,18.4-23.8,27.7-6.1,4.6-11.7,10.2-14.5,14.6q-1.8,2.85,1.5-1.5a69.66,69.66,0,0,1,13.7-13.3c10.2-7.7,17-15,21.3-22.8,1-1.8,2.5-5.5,2.3-5.6,0-.1-.2.3-.5.9m279.1-.6a3.61,3.61,0,0,0,.7,2c2.4,4.2,4.7,17.6,3.7,21.1a10.32,10.32,0,0,0-.3,2.6,18.16,18.16,0,0,1-.3,3.2c-1,5.6-1.5,20.7-.9,27.6.4,4.5.3,5.9-.3,4.1-.4-1.4-.5-.4-.1,1.3a32.69,32.69,0,0,1,.7,3.4c.5,2.8.6,3.2.9,2.9.2-.1.1-1.6-.2-3.3-.7-4.8-.7-27,0-33.4,1.4-12,1.4-11,.8-15.9-.7-5.8-1.6-9.5-3-12.4-2.3-4.8-.4-3.4,3.6,2.6,2,3,3.4,4.9,3.4,4.6a8.93,8.93,0,0,0-.8-1.3,5.48,5.48,0,0,1-.8-1.4,1,1,0,0,0-.5-.7,13.9,13.9,0,0,1-2-2.7c-2.7-3.9-4.2-5.3-4.6-4.3m-307.2.9a10.1,10.1,0,0,1-.3,1.7,89,89,0,0,0-1.8,8.8l-.2,1,.5-1.1a5.37,5.37,0,0,0,.5-1.9,8.79,8.79,0,0,1,.3-2c1-4,1.4-5.9,1.2-6.5-.1-.8-.1-.8-.2,0M21.56,47a49.77,49.77,0,0,0-4.7,7.2,66.11,66.11,0,0,0-4.1,8.2,7.44,7.44,0,0,1-.7,1.8,3.09,3.09,0,0,0-.5,1.6c.1.1.5-.7.9-1.7a79.76,79.76,0,0,1,8.6-15.8c3.4-4.5,3.9-4.7,2.1-.7-1.2,2.5-1.4,3.2-2.4,7.4-1.1,4.4-.5,15.1,1.5,29.3.6,4.2.5,14.2-.2,22.9-.3,4-.3,5.5-.1,5.8s.4.1.5-.7c.1-.6.4-2.3.7-3.8.9-5.1.9-5.2-.4-.6-.3,1-.3,1-.2-.6.4-5.3.5-19.5.1-22.2-.6-4.2-.9-7-1.3-10.8-.2-1.9-.5-4.3-.7-5.3a50.66,50.66,0,0,1,.1-12.3c1-5.3,1.3-6.2,2.6-9,2.6-4.9,1.5-5.2-1.8-.7m5.3.9c-1.3,4.9-1.3,14.8-.2,27a39.73,39.73,0,0,1,0,6.9c-.8,7.4.1,9.6,2.1,5.4.4-.9.4-.9-.6.3-1.5,1.7-1.6,1.4-1.2-3.6.3-4.3.3-6.3-.4-16-.4-6-.2-15.1.4-18.2.4-1.8.3-3.3-.1-1.8m22.4,3.7c-5.9,4.4-10.5,9-13.2,13.2-2.1,3.2-2.4,3.3-1.2.2a19.87,19.87,0,0,0,.8-2.5,5.79,5.79,0,0,1,.4-1.3,11,11,0,0,0,1.2-3.8c0-.9-.3-.5-.8,1.5-.3,1-1.1,3.4-1.8,5.5s-1.5,4.2-1.6,4.7a15.43,15.43,0,0,0-.5,1.7c-.4,1.4.1.7,1.3-1.6a35.3,35.3,0,0,1,5.2-7.8c3.8-4.4,5.7-6,12.6-11,1.7-1.2,3.1-2.3,3.1-2.3,0-.5-1,.2-5.5,3.5m308,3.3a37.89,37.89,0,0,1,2.4,5.3c.7,1.7,1.2,2.8,1.2,2.5,0-1.1-4.2-10-4.7-10a18.54,18.54,0,0,0,1.1,2.2m-10.8,2.7c0,2,.1,2.9.1,1.9a22.85,22.85,0,0,0,0-3.7c0-1.1-.1-.3-.1,1.8m-309-2.4a3.25,3.25,0,0,0-.1,1.3c.2.2.6-1.4.5-1.9-.1-.2-.2,0-.4.6m308.3,14.3c-.4,6.6-.3,12.1.3,14.1.1.4.2-4.2.3-10.2v-11a61.61,61.61,0,0,0-.6,7.1m15.2-5.9c0,.1.3,1,.6,2,3.3,10.1,3.3,24.2.2,36-.2.7-.2.8.2.2a7.59,7.59,0,0,0,.6-1.8c.1-.6.5-2.7.9-4.5,1.2-6,1.2-17.7,0-23.3-.2-.8-.5-2.2-.7-3.1-.5-2.7-1.8-6.6-1.8-5.5m-43.4,1.2c0,2,2.9,11.9,4.1,13.8.6,1,.5.7-.8-3.1-2.3-6.6-3.2-10.8-2.3-10.8.2,0,.5.4.8.9,1.1,2.2,7.5,8.6,15.2,15.4,6.9,6.1,10.5,10.3,12.4,14.7,1.4,3.2,1.8,4,2,3.9.3-.3-2.5-5.8-4-8-1.8-2.7-7.6-8.6-12.5-12.8-6.2-5.3-10.5-9.8-13.5-14.2-.8-1.2-1.4-1.1-1.4.2m-264.8,3.1a12,12,0,0,1-1.7,2.3,9.22,9.22,0,0,0-1.4,1.9l-1,1.5.9-1c.5-.6,1.4-1.7,2-2.5,2.9-3.9,3.3-4,2.5-.8s-1,4.3-.7,4.1a21.46,21.46,0,0,0,1.2-5.9c.1-1.9-.4-1.8-1.8.4m-42.2.7c-1.6,5.6-1.8,7.5-1.8,15.8,0,7.8.5,12.8,1.5,14.6a2.24,2.24,0,0,1,.3,1,37.25,37.25,0,0,0,2.3,6.9c.3.5.3.5.1-.1-3.2-9.6-3.8-13.1-3.8-22.3,0-7.7.2-9.6,1.5-14.9,1-3.6.9-4.4-.1-1m34.7,7.5c-3,2.8-10.5,10.2-12.5,12.4s-4.2,5.3-3.8,5.3a9,9,0,0,0,1.3-1.7c1.6-2.4,6.6-7.7,12.7-13.5,4.6-4.4,5.5-5.3,5.2-5.2,0,0-1.3,1.3-2.9,2.7m7.3-.7c-.5,1.6-1.5,4.6-2.9,8.1s-5.2,10-9.8,16.5c-6,8.3-8.9,12.7-8.5,12.4a21.94,21.94,0,0,0,2.1-2.9c2.6-3.9,4.3-6.3,5.6-8,.7-.9,1.5-2,1.9-2.5.8-1.1,5.4-8.3,6.1-9.6a19.92,19.92,0,0,1,1.2-1.9c.8-1.2.7-1,1.8-4,.5-1.3,1-2.7,1.1-3.1,1.3-3.3,2.1-5.9,1.9-6.2a3.6,3.6,0,0,0-.5,1.2m269.7,4.8c.5,2,4.5,9.2,6.7,12a5.59,5.59,0,0,1,.9,1.4c0,.1,1.3,1.9,3,4.1,3,3.9,3.7,4.9,4.9,6.7.4.5,1.5,2.1,2.6,3.5s2.4,3.2,2.9,4a5.12,5.12,0,0,0,1.1,1.4c.3,0-1.7-3-5.4-7.9-1.9-2.5-3.6-4.8-3.9-5.2s-1.4-1.8-2.4-3.2a81.94,81.94,0,0,1-5.8-8.5,7.91,7.91,0,0,0-.8-1.3c-.2-.1-1-1.6-3.3-6.5-.5-.9-.6-1-.5-.5M368,94.71a36.85,36.85,0,0,1-.3,7.7c-.8,5-.9,5.6-.5,4.8.7-1.7,1.4-7.4,1.3-11.4-.1-4.7.2-5.2,1.3-2.5.4.9.6,1.3.5.9-1.5-5.7-2.6-5.4-2.3.5M4.36,93.61a64.31,64.31,0,0,0-2.6,9.3c0,.4.3-.2.6-1.5,2.3-8.7,2.9-9.3,2.7-2.8l-.1,4.1.3-4.5c.2-2.5.2-4.7.2-4.9-.2-.7-.8-.5-1.1.3M28,95.11c-.4.5-.6,1-.5,1a3,3,0,0,0,.9-1c.4-.5.6-1,.5-1a4.89,4.89,0,0,0-.9,1m342.5.6c.1.4.3,1.4.5,2.1.4,1.8,1,3.3.8,1.9a13.31,13.31,0,0,0-1.2-4.3c-.2-.3-.2-.3-.1.3m-344.9,3.7a19.38,19.38,0,0,0-1.5,3.7c0,.3.3,0,.5-.8a33.16,33.16,0,0,1,1.6-3.5,6.07,6.07,0,0,0,.9-2.2,11.54,11.54,0,0,0-1.5,2.8m303.9-.2c-.7.7-.1,12.1,1,17.3.3,1.3.6,3.2.8,4,1.4,7.8,4.6,20.9,5.1,20.4a6.64,6.64,0,0,0-.5-2.4c-1.3-4.3-2.9-11.2-4.3-18.4-.4-2.2-1.2-7.2-1.6-10.4-.4-2.9-.5-9.3-.1-9.7.2-.2,1.4,1.9,1.4,2.6a3.62,3.62,0,0,0,.5,1.3c.6,1.2.5.4-.6-2.6-.9-2.1-1.2-2.6-1.7-2.1m42.6,2.9c.1.7.3,2.6.6,4.2a115.49,115.49,0,0,1,0,18.6c-.7,5.5-.8,6.1-.4,5.1,1.5-4.7,1.6-23.5,0-28.2-.3-1-.3-1-.2.3M42.66,102a40.74,40.74,0,0,0-1.7,5.6c.1.1.5-.7,1.4-3.4,1.6-4.6,1.7-.9.6,12.7l-.1,1.6.4-1.8c.9-3.7,1.2-14.4.4-14.9-.5-.3-.8-.3-1,.2m318.2,2c-.3.9-1.1,3-1.9,4.8-1.7,4.1-3,8-2.8,8.2s.3-.3.5-.9c.4-1.3,1-3,1.5-4.3.2-.5.9-2.4,1.6-4s1.3-3.4,1.5-3.8a1.61,1.61,0,0,0,.2-1.1c-.1-.2-.3.3-.6,1.1m-355.5-.2c-.1,2.6,1.5,8.7,3.7,14,1.8,4.4,1.2,1.9-.8-3.2A43.23,43.23,0,0,1,6,106c-.6-3.4-.6-3.4-.6-2.2m-4.3,1.9c-.2,1-.5,2.6-.7,3.4-.6,2.8-.4,13.9.3,18.4.3,2.2.7,4.6.8,5.3.5,3.2,2.9,12.2,3.9,14.3a4.72,4.72,0,0,1,.5,1.4c0,.2.2.4.4.6s.3.1.1-.4c-4.8-11.5-7.1-29.3-5.3-40.5.7-4.2.7-6,0-2.5m331.1-.3a16.27,16.27,0,0,0,1.6,3,13.54,13.54,0,0,0-1.5-3.2c-.1-.1-.1,0-.1.2m-318.9,2.8a13.14,13.14,0,0,0,.5,1.5c.1.4.9,2.5,1.7,4.5a117.73,117.73,0,0,1,4.1,12.3c.5,2.1,1.3,5.3,1.5,6.4.4,1.9,1.2,1,2-2.2,1-4,.5-3.4-.7.7-.5,1.8-1.1,2.2-1.1.8,0-1.7-2.5-10.5-4.1-14.8-.4-1.2-1.3-3.4-1.9-5-1.2-2.8-2.5-5.6-2-4.2m26.2,2.5a24.48,24.48,0,0,1-2,3.6,44.63,44.63,0,0,0-2.4,3.9,25.18,25.18,0,0,1-2.2,3.4,115.63,115.63,0,0,0-5.6,11.1,23.7,23.7,0,0,0,2.3-4.3,126.8,126.8,0,0,1,8-13.8c1.1-1.6,3.4-6.3,3.2-6.5l-1.3,2.6m326.7-1a8.84,8.84,0,0,1-.7,2,2.24,2.24,0,0,0-.3,1,39.08,39.08,0,0,1-1.9,5.5c-1.3,3.2-1.9,4.5-2.8,6.6-.6,1.3-1.1,2.4-1.1,2.5s-.4,1-.8,2a48.88,48.88,0,0,0-3,7.6,1.88,1.88,0,0,1-.2.8,5.84,5.84,0,0,0-.6,1.6c-.9,3.1-2.3,8.9-2.7,10.8-.5,2.6-.7,2.4-.8-1.1a43.29,43.29,0,0,0-1.1-9.2c-.3-.8-.3-.8-.2.2.8,4.5,1,14.2.2,17-1.3,4.6-1.5,5.5-1,5.5s1.1-2.4,1.8-5.5c.3-1.3.6-2.9.8-3.6a30.19,30.19,0,0,0,.7-3.1,121.14,121.14,0,0,1,4.1-14.9c.2-.6.4-1.1.4-1.2s1-2.4,2.2-5.1c4.4-9.6,8.2-20,7.7-20.5-.3-.2-.5.3-.7,1.1m-32.1-.2a8.11,8.11,0,0,0,1,1.8,3,3,0,0,1,.6,1.1,6.66,6.66,0,0,0,.6,1.1c1.5,2.2,6.8,11,9.2,15.4.4.7.7,1.2.8,1.1s-3-5.8-5.7-10.2c-.9-1.5-2-3.3-2.4-3.9-.8-1.2-1.7-2.9-3-5.2-1-1.9-1.5-2.5-1.1-1.2m-304.1,5c-.8,1.1-1,1.8-.2.8.6-.8,1.2-1.8,1-1.8s-.4.5-.8,1m316.5,2.6c.6,1.1,1.1,1.9,1.2,1.8s-1.8-3.7-2.1-3.7a7.22,7.22,0,0,0,.9,1.9m-318.3.4c-1.8,3.2-4.6,9.3-4.3,9.5.1.1.5-.7.9-1.8a59.86,59.86,0,0,1,3.8-7.6c.4-.7.7-1.3.6-1.4a4.45,4.45,0,0,0-1,1.3m327,2.2a54.88,54.88,0,0,0-1.9,8.1c-.8,4.3-1.1,4.7-1.7,2-.7-3.4-3.4-10.7-3.8-10.3-.1.1.1.6.4,1.1a49.24,49.24,0,0,1,3.1,9.4c.6,2.8,1.7,2.7,2.1-.2a25.78,25.78,0,0,1,.7-3.4c.2-1.1.6-2.8.9-3.9a11.09,11.09,0,0,1,.9-2.9,5.35,5.35,0,0,0,.4-1.6c-.3-.4-.6.4-1.1,1.7m-312.9,1.5c-.7,4.5-1.1,6.4-1.4,7.8s-.4,2.2-.1,2a40,40,0,0,0,1.4-7.2,13.8,13.8,0,0,1,.3-2,4.87,4.87,0,0,0,.2-2.1c0-.8-.1-.4-.4,1.5m-32.1-.7a5.79,5.79,0,0,0,.4,1.3c.2.5.9,2,1.5,3.3s1.1,2.3,1.2,2.2a52,52,0,0,0-2.6-6.2c-.3-.5-.5-.8-.5-.6m3.2,7.5a9.86,9.86,0,0,0,.8,1.8c.4.8.8,1.3.8,1.1a9.86,9.86,0,0,0-.8-1.8c-.4-.8-.8-1.3-.8-1.1m333,2.4a11.54,11.54,0,0,0,1.6,3,5.73,5.73,0,0,0-.7-1.6c-.7-1.3-.9-1.6-.9-1.4m25,2.6a27.4,27.4,0,0,1-.7,2.8c-.3.8-.4,1.9-.2,1.7a26.8,26.8,0,0,0,1.4-5.9c0-.4-.3.2-.5,1.4m-356.3-1.3c1.8,4.5,3,7.1,3.1,6.7a1,1,0,0,0-.2-.9,23.19,23.19,0,0,1-1.4-3,19.61,19.61,0,0,0-1.4-2.9c-.2-.3-.2-.3-.1.1m24.6,2.7a15.76,15.76,0,0,0-.6,3.3c.1.1.2-.3.4-.8a26.73,26.73,0,0,1,.7-2.6,9,9,0,0,0,.4-2.4c-.1-.3-.5.8-.9,2.5m-13.3.6a8.51,8.51,0,0,0-.7,2.2c0,.3.4-.4.8-1.6,1-2.5.9-3-.1-.6M348,134c0,.6,1.6,4.8,1.6,4.3a18.08,18.08,0,0,0-1.4-4.3c-.1-.1-.2-.1-.2,0m-323.2,5.8a14.08,14.08,0,0,0-.7,2.9c0,.4.4-.4.8-1.8,1-3.2.9-4.1-.1-1.1m344.3,1.1c-.6,1.7-1.4,3.8-1.7,4.6a43.43,43.43,0,0,1-4.2,8,9.18,9.18,0,0,0-1.1,1.5c-.4.6-3.2,4.3-6.3,8.2-2.6,3.3-9.2,12.1-11.1,14.6-1.6,2.2-1.9,2.1-1.9-.3v-2l-.3,2c-.6,3.8.2,3.8,2.9,0,2.5-3.6,7.3-10,9.2-12.2,1.5-1.7,6.9-8.7,8.3-10.8a27.25,27.25,0,0,0,3.5-6c2-4.3,2.3-5,2.8-6.8a21,21,0,0,1,.9-2.5,1.61,1.61,0,0,0,.2-1.1c-.1-.2-.6,1.1-1.2,2.8m-331-.1a11,11,0,0,0-.6,2.8c.2.2,1.6-4.6,1.5-5s-.5.7-.9,2.2m-19.8-1.6a10.43,10.43,0,0,0,.5,1.7c.8,2.5,2,7.1,2.9,11.5.5,2.2,1,4.7,1.1,5.4a41,41,0,0,0,2,6.7q.6.6-.6-4.5a65.68,65.68,0,0,1-.4-14.2c.2-1.6.2-1.7-.1-1a51.31,51.31,0,0,0-.6,6.1c-.2,5.6-.3,5.6-1.4.3a92.39,92.39,0,0,0-2.4-9.5c-.6-1.8-1-2.8-1-2.5m318.1,2.6a13,13,0,0,0,.8,2.9c.4,1.3,1,2.9,1.2,3.7s.5,1.3.6,1.2,0-.6-.2-1.2-.8-2.5-1.3-4.2c-.7-1.6-1.1-2.7-1.1-2.4m-5.3,2.2c-1.2,2.7-1.1,3.2.1.7,1.2-2.7,1.2-2.6,1.4,2.9.2,4.7,1,11.1,1.1,8.1a10.32,10.32,0,0,0-.3-2.6,39,39,0,0,1-.5-5.8c-.1-2.6-.1-4.8-.2-4.9.1-1-.9-.1-1.6,1.6m-294.6,2.4a20.36,20.36,0,0,0-.6,2.7c.2.2,1.6-4.4,1.4-4.8s-.5.7-.8,2.1m4.7-2.2c0,.2-.1,2.4-.1,5a50.17,50.17,0,0,1-.5,6.8c-.2,1.2-.5,2.6-.5,3.2s-.4,2.4-.8,3.9a38.29,38.29,0,0,0-.9,4.4c-.1.9-.6,3.2-.9,5.2-1.9,9.9-.3,22.3,3.7,30,1.7,3.2,1.2,2.9-1.3-.8a14.52,14.52,0,0,0-2.4-3.1c-.1.1.3.7.8,1.4s1.7,2.3,2.5,3.5c2.5,3.8,4.7,5.4,2.5,1.9-5.5-8.7-7.5-21.4-5.3-33.4,1-5.6,1.3-7,2.7-13.7a51.06,51.06,0,0,0,1-9.9c0-3.3.2-4,.9-2.8.3.5.3.5.3.1,0-.6-1.6-2.2-1.7-1.7m331.5,1.1a1.9,1.9,0,0,0-.4,1.2c0,.8-.1,1.2-1.2,4.6a36.46,36.46,0,0,1-1.8,4.7,5.37,5.37,0,0,0-.7,2c.2.2,2.4-4.7,3-6.7.3-1,.7-2.1.8-2.5a4,4,0,0,0,.3-1.5c0-1.1.6-1.3.9-.3.1.5.2,3.5.2,6.6,0,3.3.1,5.1.2,4.4.9-5,0-13.7-1.3-12.5M43,147a15.46,15.46,0,0,1,.4,1.5,2.7,2.7,0,0,0,.5,1.2c.7.9,3,11,3.9,17.1a14.09,14.09,0,0,0,.5,2.4c.2.2.2-1.5-.2-3.1-.2-.9-.5-2.9-.8-4.6s-.7-3.4-.8-3.9-.4-1.7-.7-2.8a18.07,18.07,0,0,0-1.7-5.2,2.37,2.37,0,0,1-.3-1,3.32,3.32,0,0,0-.5-1.5c-.3-.3-.4-.4-.3-.1m286.6,1.1a13.05,13.05,0,0,1-.7,1.9,50.7,50.7,0,0,0-1.9,7.7c0,.4.5-1.1,1.1-3.3s1.3-4.8,1.6-5.6a4.29,4.29,0,0,0,.4-1.7c0-.1-.2.3-.5,1m-329.3.8c-.4,1.5.1,14.5.6,17.2s1.1,4,.7,1.7c-1.1-6.1-1.6-17.6-.9-18.1.1-.1.5.7.8,1.7a58.86,58.86,0,0,0,3.9,9.6,59.85,59.85,0,0,0,4.1,6c.1.1.7.9,1.4,1.7s1.4,1.7,1.6,2c3.4,3.7,5.2,5.6,10.8,11.3,6.7,6.9,9.4,10,12.2,14.1a14.37,14.37,0,0,0,1.7,2.2,47.46,47.46,0,0,0-4.4-6.3c-1.6-2-6.7-7.5-10.4-11.3-13.4-13.5-18.4-20.5-20.1-28-.8-4-1.6-5.4-2-3.8m6.3.6a29.46,29.46,0,0,0,2,3.8c1.1,1.8,5.1,7.5,6.7,9.4.8,1,2.9,3.5,4.7,5.7,4.4,5.3,9.5,12.3,9.5,13a2.62,2.62,0,0,0,.6.8c.9.8,1.6.4,1.6-.7v-.9l-.1.9c-.2,1.3-.7,1-2.4-1.6-3.2-4.6-5.1-7.2-8.4-11.2-7.4-9-9.8-12.1-13.4-18.3-.4-.5-.8-1-.8-.9m28.2,2.5c-.4,1.4-1.1,3.7-1.6,5.2a14.7,14.7,0,0,0-.7,3c.1.2.5-.8.9-2.2s1.1-3.7,1.6-5.2a14.7,14.7,0,0,0,.7-3c-.1-.2-.5.8-.9,2.2m304.2-1.6a3,3,0,0,0,.3,1.1,25.45,25.45,0,0,1,.8,2.5c.3,1,.7,2.1.8,2.4a27.75,27.75,0,0,1,1.5,5.7c.1.8.3,1.3.4,1,.2-.7-.5-3.6-2.1-8.4-1.4-4.2-1.7-5.1-1.7-4.3m-5.2,7.7c0,.3.4,2.2.8,4.2.8,3.8.9,2.3,0-1.9-.4-2.6-.8-3.6-.8-2.3m33.7,1.1c-.8,1.1-1,1.8-.2.8.6-.8,1.2-1.8,1-1.8a7.22,7.22,0,0,0-.8,1m-41.1,1.8c-.2,1.4-.5,3.3-.7,4.2-.6,3.1-1.5,14.8-1.8,21.7l-.1,3.6.4-4.4c.2-2.4.7-7.6,1-11.5s.7-7.6.8-8.3a9.28,9.28,0,0,0,.3-2.4,11.71,11.71,0,0,1,.4-2.6,6,6,0,0,0,.2-2.2c0-.4-.3.4-.5,1.9m46.3,2.5a39,39,0,0,1-1.6,6.2,24.06,24.06,0,0,0-.7,2.4c.1.1.3-.3.5-.9a9.76,9.76,0,0,1,.7-1.7c.1-.4.5-1.8.8-3.2a22.33,22.33,0,0,1,.9-3.3,4.12,4.12,0,0,0,.2-2c0-1.2-.2-.7-.8,2.5M32,161.91c-1.2,4.2-1.5,17.4-.4,18.4.4.3.4.3.2-.2-.8-2.4-.5-14.8.5-17.4a2.73,2.73,0,0,0,.2-1.5c-.1-.3-.3-.1-.5.7m333.6.3c-2.3,3.6-6,7.9-13.2,15.1-7.7,7.9-12.6,13.9-17.6,21.9-1.5,2.4-2.8,3.3-1.5,1.1a2.66,2.66,0,0,0,.5-1.3c0-.3-.7,1-1.6,2.8s-1.8,3.4-1.9,3.5a1.14,1.14,0,0,0-.3.8c0,.5,1.9-1.9,5.1-6.6,3.9-5.8,4.6-6.7,5.6-8.1a83,83,0,0,1,9.8-11.6c9.6-9.7,17.6-19,16.2-19a5.12,5.12,0,0,0-1.1,1.4m-22.6,7.2c0,2.7,0,3.7.1,2.3a40,40,0,0,0,0-4.9c-.1-1.2-.1-.1-.1,2.6m-7.6-3.3c0,.1.3,1.9.6,4s.7,4.2.8,4.8.1,0,.1-1.1c-.1-2.1-1-7.4-1.3-7.7-.1-.2-.2-.1-.2,0m-333.6,3.6a7.42,7.42,0,0,0,.4,1.8c.3.8.5.9.5.4a1.49,1.49,0,0,0-.3-1,1.82,1.82,0,0,1-.4-1.1c-.1-.6-.2-.6-.2-.1m46.6,1a30,30,0,0,0,.3,3.7c.2,1.3.5,5.3.8,8.8s.7,7.4.8,8.6a27.34,27.34,0,0,1,.3,3.7,18,18,0,0,0,.5,3.7l.5,2.1-.1-1.9c-.1-1.1-.3-3.3-.5-5s-.6-5.5-.8-8.4c-1.1-11.7-1.7-17.3-1.8-15.3m321.4,2.5c-.8,1.6-1.1,2.6-.9,2.8s.3-.3.5-.8.5-1.3.7-1.7.3-.8.2-.9-.3.2-.5.6M2.66,173a13.84,13.84,0,0,0,1.3,3.5c.3.8.6,1.5.6,1.6a13.34,13.34,0,0,0,1.8,3.6c.1-.1-.1-.7-.5-1.4a35,35,0,0,1-1.8-4.3c-1.1-3.1-1.4-3.6-1.4-3m334.4,7.4a45.91,45.91,0,0,1-2.4,15.3,7.89,7.89,0,0,0-.7,2.6c.2.2.8-1.4.8-2a.71.71,0,0,1,.3-.6,1.87,1.87,0,0,0,.5-1.1c.1-.5.4-1.8.7-2.8a48.87,48.87,0,0,0,1.1-12.8c-.2-2.7-.3-2.7-.3,1.4m30.8-2.7c-.4.7-.7,1.4-.6,1.5s.5-.5.8-1.2c.9-1.8.7-2-.2-.3m-49.2,2.6c-.9,1-4.9,6.5-6.6,9-.8,1.2-1.5,2.2-1.6,2.3a25.81,25.81,0,0,0-2.6,3.8,7.08,7.08,0,0,1-1,1.7c-1.3,1.9-2.3,3.9-2.1,4.1s.5-.6,1-1.4c.8-1.6,4.5-7.4,5.5-8.7.3-.4,1.1-1.6,1.9-2.8,2.9-4.5,5.6-7.8,6.3-7.8.3,0,.4.2.2.6a35.81,35.81,0,0,0-1.7,5.1,35.77,35.77,0,0,0,2.2-5.8c.2-.9-.7-1-1.5-.1m47.3.8a77.79,77.79,0,0,1-12.9,16.4c-2.5,2.5-3.2,3.3-1.9,2.2a78.44,78.44,0,0,0,12.6-14.6c3-4.7,3.4-5.2,3.2-5.4a4.4,4.4,0,0,0-1,1.4m-312.5,1a9.39,9.39,0,0,0,.7,1.9,15.77,15.77,0,0,1,.9,2.5c1,3.8,1.6,6.1,1.9,7.8.2,1.1.6,2.6.7,3.4.3,1.4.5,2.8,1.2,7.9a70.74,70.74,0,0,0,1.5,8.2c.3.3.2-1.1-.4-4.7-.3-1.9-.8-4.8-1-6.3a126,126,0,0,0-3.7-17c-1.3-3.3-1.3-3.6-.5-3.1a91.6,91.6,0,0,1,7.1,8.8c.9,1.3,1.3,1.6.7.6-.4-.8-5.4-7.3-6.9-9.1-.9-1.1-2.2-1.6-2.2-.9m-46.9.2a73.79,73.79,0,0,0,4,6.4,98.59,98.59,0,0,0,12.3,13.1c2.9,2.3,3.6,2.8,1.8,1.2-8.6-7.6-13.4-13.1-17-19.3-.7-1.4-1.1-1.8-1.1-1.4m310.7,6.3a8.94,8.94,0,0,0-.3,2.2c.3.3,1-2.6.8-3.5,0-.5-.2-.1-.5,1.3m5.7,6.6c-.9,7.2-1,8.3-1.8,11.4-1.3,5.1-1.6,6.4-2.8,9.1-.3.7-.6,1.6-.8,1.9s-.8,1.7-1.4,3.1c-1.8,3.5-1.3,5,.9,3a23.27,23.27,0,0,1,2-1.6c.5-.4,1.9-1.3,3-2.1s2.4-1.6,2.8-1.9,1.8-1.2,3-2c1.9-1.3,6.5-4.2,8.3-5.3,2.4-1.5,10.1-6.9,11.4-8.1s1.3-1.2-.8.4c-2.5,1.9-8.3,5.8-14.1,9.5-1.8,1.1-3.5,2.2-3.9,2.5-3.5,2.4-5.8,4-8.4,5.8-5.5,3.9-5.7,3.9-3.9.3,3.8-7.6,6.4-17.6,7.2-28.1.3-4.1-.1-2.9-.7,2.1m-6.6-2c-.7,3.9-1,5.7-1.5,9.5-2.4,19-5.8,27-16.3,38.1-4.2,4.5-3.3,4.4,1.9-.2,1.2-1,2.8-2.4,3.6-3.1a99.72,99.72,0,0,1,15.5-9.7c1.1-.6,2-1.1,1.9-1.2-.7-.7-15.2,8.4-20.4,12.9-3.4,3-3.6,2.9-.5-.6a39,39,0,0,0,2.6-3,15.75,15.75,0,0,1,1-1.3,50.77,50.77,0,0,0,9-19.1c.7-3.4,1.3-6.7,1.6-8.9.4-3.3,1.6-11.3,2.1-14.3.3-1.9-.1-1.2-.5.9m-253.3.4a21,21,0,0,0,2.6,3.5,6.88,6.88,0,0,0-1.1-1.9c-.7-1.1-1.3-1.9-1.5-1.9s-.1,0,0,.3m297.6,1.9c-.3.4-1.6,2.6-2.5,4.3-.4.8-1.9,2.6-4.8,5.9a49.79,49.79,0,0,1-6.9,6.5,61.69,61.69,0,0,1-6.8,4.5c-.7.4-2,1.1-2.9,1.7s-2.7,1.5-4,2.1a28.65,28.65,0,0,0-2.8,1.6,2.87,2.87,0,0,1-1.1.6c-.4.1-.6.3-.5.4.3.3,11.4-5.8,15.3-8.4,6.2-4.2,12.8-11,15.5-15.9,1.8-3.3,2.5-3.6,1.8-.7-.8,3.3-3.2,10.1-3.9,11.1a8.28,8.28,0,0,0-.8,2.1,46.41,46.41,0,0,0,3.1-6.7,1.93,1.93,0,0,1,.3-1c1.6-3.4,2.5-9.9,1-8.1m-294.5,2.6c.2.4.8,1.4,1.2,2.1s1.7,3.1,2.9,5.3a26.53,26.53,0,0,0,2,3.7,78.83,78.83,0,0,0-4.4-8.7c-.4-.7-.9-1.6-1.1-2a2.33,2.33,0,0,0-.7-.9c-.2-.2-.2-.1.1.5m-53.7.3c0,1.2,1.9,7.4,3,10.1a69.69,69.69,0,0,0,7.7,13.2l1,1.1-.6-1a11.07,11.07,0,0,0-1.1-1.6c-3.1-3.5-8.5-15-9.3-20-.3-1.8.3-1.5,1.4.6,2.8,5.6,11,13.6,17.9,17.4,1,.6,2.2,1.3,2.6,1.5a75.35,75.35,0,0,0,6.8,3.5c.3,0-1.1-.9-3.5-2.1a93.73,93.73,0,0,1-8.8-5.2c-6.8-4.8-10.9-9.2-14.6-15.5-1.4-2-2.6-3.1-2.5-2m39.1,3.8c-.1,2.8,1.8,10.6,3.4,14.2.6,1.3,1.3,2.8,1.4,3.2s.4.7.5.6a4.67,4.67,0,0,0-.7-1.9c-2.2-4.3-2.6-5.7-4.2-14.6-.1-1.2-.4-1.9-.4-1.5m252.1,1.1c-.4.9-1.1,2.4-1.5,3.3a13.39,13.39,0,0,0-.8,1.9c0,.2-.4,1.2-.8,2.4a5.89,5.89,0,0,0-.7,2.4c.1.2.5-.9,1.1-2.4s1.6-4.1,2.3-5.9a16.43,16.43,0,0,0,1.3-3.3c-.1-.1-.5.6-.9,1.6m-276,2.3c1.2,1.1,5.6,4.2,4.9,3.5-.2-.2-1.6-1.3-3.2-2.5s-2.3-1.6-1.7-1m5.8,4.1c.9.9,11,7.5,11,7.2,0-.1-6.1-4.3-8-5.5-.3-.2-1.2-.7-2-1.3-.8-.4-1.3-.6-1-.4m38.8,0a24.64,24.64,0,0,0,1.4,3.8c.3.3.2-.5-.1-1.2-.2-.3-.5-1.1-.8-1.7s-.5-1-.5-.9m281.5,5.4c-4.8,7.8-13.5,16.9-20.7,21.7-.8.6-1.9,1.3-2.4,1.6a65.17,65.17,0,0,1-7.2,4.3,11,11,0,0,0-2.6,1.5,12.27,12.27,0,0,0,2.7-1.2c11.2-5.7,22.4-15.6,29-25.6,3.2-4.9,3.6-5.5,3.4-5.6a22.06,22.06,0,0,0-2.2,3.3m-279.9-1a22.41,22.41,0,0,0,1.4,3.9c.3.3.2-.4-.5-2.2s-.9-2.3-.9-1.7m225.5.1c-.9,3-2,6.2-3.1,9.4-1.6,4.7-2,5.9-1.9,6.1s.4-.6.6-1.5.6-1.9.8-2.3a11,11,0,0,0,.8-2.4c.3-.9,1.1-3.5,1.8-5.6s1.2-3.9,1.2-4-.1.1-.2.3m-238.7.8c0,.9.6,3.4,2.1,8.1.7,2.2,2.3,5.8,2.5,5.6s-.1-.7-.4-1.3c-1.1-2-2-4.6-4-12.4l-.2-1v1M46,218c1.5,1.1,4.1,2.6,3.2,1.9a37.28,37.28,0,0,0-4.2-2.8c-.2,0,.3.4,1,.9m29.6.7c0,.6,1.4,4.4,1.5,4.1a9.33,9.33,0,0,0-.7-2.4c-.5-1.2-.8-2-.8-1.7m215.2,2c-8,6.3-12.9,10.7-25.6,23.4-5.8,5.8-8.6,8.3-11.5,10.2-3.4,2.2-10.4,5.5-11.7,5.5a1.4,1.4,0,0,0-.9.3,9.5,9.5,0,0,1-1.8.7c-.8.2-1.3.5-1.1.6a52,52,0,0,0,7.3-2.4c7.4-3.1,10.8-5.7,20.4-15.1,13-12.8,16.6-16.2,22.5-20.7,5.3-4.1,6.4-4.6,4.7-2.2a12.89,12.89,0,0,0-1.6,3.2c.1.1.3-.3.6-.8s.9-1.5,1.3-2.2c1.8-2.7.5-2.9-2.6-.5m-240,.5a4.05,4.05,0,0,0,1.3.8c.2,0-.2-.4-.8-.8-1.4-1.1-1.8-1.1-.5,0m29.3-.4a19.13,19.13,0,0,0,2.1,4c1.1,1.9,2.8,5,3.8,6.9a18.14,18.14,0,0,0,1.9,3.3c.2-.2-5.1-10.5-6.3-12.1-2-2.7,1.1-1.4,5.2,2.2.5.5,1.6,1.3,2.2,1.8,2,1.6,8.5,7.3,11.2,9.9,1.3,1.3,4.8,4.6,7.7,7.4s5.6,5.3,5.9,5.7a55.35,55.35,0,0,0,6.8,5.3,8,8,0,0,1,1.4.8,42.83,42.83,0,0,0,7.2,3.5c.8.2-1-.8-2.4-1.3a46.5,46.5,0,0,1-6.1-3.3c-.5-.3-1.4-.9-2.1-1.4-1.8-1.2-4.8-4-15-13.9-10.5-10.1-23.5-20.6-23.5-18.8m-23,0c0,.1.9,2.1,1.3,2.9.7,1.2-.1,2.7-.8,1.6a28.48,28.48,0,0,0-5-3.1,9,9,0,0,0,1.7,1.3c.9.6,2.2,1.5,2.8,1.9,2.4,1.8,2.9.9,1.3-2.5-.8-1.9-1.3-2.6-1.3-2.1m-32,3.4a95.2,95.2,0,0,0,10.5,10.7c3.4,2.8,6.1,4.9,6.5,4.9a2,2,0,0,1,.9.6c1,.9,6,4,6.2,3.8s-.5-.6-1.4-1.1a41.38,41.38,0,0,1-3.5-2.3,14.25,14.25,0,0,0-2.2-1.4,70.38,70.38,0,0,1-6.6-5A114.59,114.59,0,0,1,26,225c-1.1-1.3-1.5-1.6-.9-.8m17.1-.8c0,.2,9.5,4.7,9.6,4.6a19.13,19.13,0,0,0-3.7-2c-6.2-3-5.9-2.9-5.9-2.6m35,0c0,.2.6,2,1.3,4,4.2,11.7,8,18.4,13.9,24.6,2.6,2.8,3,3.8,1.1,3-1.7-.7-12.2-2.8-12.8-2.5-.2.1.3.2,1.1.4s2.4.4,3.6.7,3,.6,4,.8a20.65,20.65,0,0,1,2.9.7c3.6,1.2,4.2.4,1.5-2.1a47,47,0,0,1-10.1-14.1c-.9-1.9-1.8-3.8-2-4.1-.4-.7-1.6-4-2.4-6.3-.3-.8-.6-1.7-.8-2.1s-.5-1.2-.8-1.9-.5-1.2-.5-1.1m247.5,1.4a10.14,10.14,0,0,0-2.7,1.6,48.12,48.12,0,0,0,5.7-2.8c1.1-.8-.4-.2-3,1.2m-33.8.1c-.6.8-2.7,5.2-2.5,5.4s.5-.6,1-1.6,1.1-2.2,1.5-2.8c.5-1.1.6-1.8,0-1m-238.7,3.4a14.41,14.41,0,0,0,2.5,1.4,88.11,88.11,0,0,1,13.9,8.5c.9.7.8.6-.2-.4-2.2-2.1-7.1-5.1-13.2-8.3-2.8-1.4-3-1.5-3-1.2m13.3,1a1.52,1.52,0,0,0,.4.6,8.65,8.65,0,0,1,.7,1c2.4,4.2,3.7,5.9,8.1,10.3,1.6,1.6,2.9,3,2.7,3a31.73,31.73,0,0,1-4.9-3.4c-2-1.6-3-2.2-1.5-.8,2,1.8,7.7,5.7,7.9,5.4a53.23,53.23,0,0,0-4.1-4.4,59,59,0,0,1-5.3-6c-.6-.9-1.7-2.7-2.5-3.9-1.2-2-1.5-2.3-1.5-1.8m228.2,1.4a3.08,3.08,0,0,0-.4.9c0,.9-4.2,9.4-6,12.1-.7,1-1.4,2.1-1.6,2.4a51.27,51.27,0,0,1-5,5.8c-2.4,2.3-1.8,3.1,1.6,2.1.6-.2,2.1-.6,3.2-.9s1.9-.6,1.6-.7a31.19,31.19,0,0,0-6.2,1.6c-1.9.7-1.5-.3,1.3-3.1a51.89,51.89,0,0,0,7-9.6c2.3-3.9,6.4-13.6,4.5-10.6m-7.1,2.8c-.9,1.9-.7,2.2.3.3.4-.8.7-1.5.6-1.6s-.5.5-.9,1.3m-198.8,2.2c0,.3,3.6,6.9,4.4,8.1s.5.2-.5-1.5c-.5-.9-1.6-2.8-2.3-4.2-1.1-2.2-1.6-2.9-1.6-2.4M285,237a3.34,3.34,0,0,0-.5,1.7c.1.1.5-.5.8-1.4.8-2,.6-2.2-.3-.3m-1.7,3.4c-.9,1.8-.8,2.1.2.4a10.45,10.45,0,0,0,.7-1.6c-.1-.1-.5.4-.9,1.2m47.5,3.3c-3.4,3.3-9.8,7.5-12.6,8.2-.7.2-1.3.8-.7.8,1.3,0,9.3-5,12.5-7.8s3.6-2.4.8,1.9c-3.8,6-10.2,12.1-17.8,17a5.34,5.34,0,0,0-1.4,1.1c.3.3,7.4-4.9,10.2-7.4a50.12,50.12,0,0,0,10.2-12.1c2.2-3.9,1.7-4.6-1.2-1.7m-50.1,1.5c-1,1.5-2.4,3.5-3.2,4.5-2.1,2.4-2.4,2.9-.6,1s6.2-8.3,5.6-8.3c0,0-.8,1.2-1.8,2.8m-239.3-.6c-1.3,2.2,12.3,16.6,19.8,20.9.5.3,1.8,1,2.8,1.6a10.17,10.17,0,0,0,2.3,1.1,12.25,12.25,0,0,0-2.5-1.7c-9-5.1-16.7-12.4-21-19.9-1.2-2.1-.8-2.2,1.3-.2,5.1,4.7,12.9,8.4,21.5,10.3a71.79,71.79,0,0,0,9.2,1.4c1.7,0,.7-.3-2.2-.6-1.6-.2-3.6-.5-4.4-.7s-2.3-.5-3.2-.7a21.68,21.68,0,0,1-3-.8c-.7-.2-2.1-.7-3.1-1a40.33,40.33,0,0,1-4.1-1.7c-1.3-.6-2.4-1.1-2.5-1.1-.5,0-6.7-4.4-8.2-5.8-1.9-1.4-2.3-1.7-2.7-1.1m8.4,0a5.81,5.81,0,0,0,2.6,1.3c.2,0-.3-.4-1.1-.8-1.5-.9-1.8-1-1.5-.5m268.6.5c-.9.4-1.5.8-1.3.8a5.8,5.8,0,0,0,1.9-.8c2.1-1,1.6-1-.6,0m-225.7-.2c0,.6,5.3,7.2,7.2,9a35.44,35.44,0,0,0,16.6,8.4c.5.1.9.3.8.3a10.5,10.5,0,0,1-2.7-.4c-1.4-.3-2.9-.6-3.4-.7s-1.8-.3-3.1-.6a77.55,77.55,0,0,0-9.2-1.3c-1.3-.1-5.3-.4-8.9-.7s-8.2-.5-10.4-.6l-3.9-.1,4.4.4c2.4.2,8,.7,12.5,1a128.26,128.26,0,0,1,21.2,2.8c5.6,1.2,6.9.5,1.6-.9a36.17,36.17,0,0,1-9.5-3.7c-.9-.5-1.7-1-1.8-1-1.2,0-7.3-6.4-9.9-10.3-1.2-1.8-1.5-2.1-1.5-1.6m-38.2,1.9a11.78,11.78,0,0,0,2.1.7c.3-.1-3.1-1.6-3.6-1.5-.2,0,.5.3,1.5.8m259.2-.1c-1.2.4-1.8.8-1.5.8a14.59,14.59,0,0,0,4.3-1.5c.5-.3-.8,0-2.8.7m-256.6.9c0,.3,4.4,1.6,4.9,1.4.2-.1-.4-.4-1.5-.7s-2.3-.6-2.7-.7-.7-.1-.7,0m253,.1c-.1.1-1.5.4-3,.8q-2.85.6-1.8.6a7.11,7.11,0,0,0,2.1-.3c.5-.2,1.7-.5,2.6-.8s1.3-.5.9-.5a1.55,1.55,0,0,0-.8.2M63,249.31a35.85,35.85,0,0,0,6.6,1.5h1l-1.1-.2c-.6-.1-2.2-.5-3.6-.8-2.5-.7-3.2-.8-2.9-.5m238.3.2c-.7.2-2.3.5-3.6.8-2,.4-2.1.5-.6.4a42.72,42.72,0,0,0,6.9-1.3c.2-.3-1.2-.2-2.7.1m-230.5,1.4c.3.3,5.2,1.1,7.4,1.3,1.7.1,1.7.1.5-.2-3-.6-8.3-1.4-7.9-1.1m222.5.2-.8.3h.8a4,4,0,0,0,1.5-.3l.6-.3h-.6a4.43,4.43,0,0,0-1.5.3m-4.2.8-1.5.4,1.3-.1c1.9-.2,3.9-.8,2.6-.8-.5.1-1.6.3-2.4.5m-15.7,1.5a13.13,13.13,0,0,0-1.4,1.2c-.1.1-1.5,1-3.2,2-3,1.8-5,2.6-10,4.1-2.5.8-3.3,1.3-1.8,1.3,1.2,0,3.7-.5,2.9-.6s-.2-.7,1.2-1c4.1-1,13-6,13.7-7.7.1-.5.1-.4-1.4.7m42.1-.4a1.87,1.87,0,0,1-1.1.5c-.5.1-2.1.5-3.6.9-5.9,1.5-10.6,2.3-13,2.3a19.83,19.83,0,0,0-3.5.3c-1,.2-3.9.5-6.6.7a150.18,150.18,0,0,0-20.1,2.3,26.41,26.41,0,0,0-6,1.3c-.3.2-.2.3.5.1a172.34,172.34,0,0,1,24.3-3.2c13.9-1.1,22.4-2.4,28-4.3,2.7-.9,3-1.1,2-1.1-.4-.1-.8,0-.9.2m-184.6,7.3a2.66,2.66,0,0,0,1.3.5c.3,0,.1-.2-.3-.5a2.66,2.66,0,0,0-1.3-.5c-.3,0-.2.2.3.5m2.3.8c.6.4,1.4.4,1.1,0-.1-.2-.5-.3-.9-.3-.6,0-.6.1-.2.3m2.7.8a26.78,26.78,0,0,0,5.3,1.5c1,0,2,.9,1.4,1.3-.4.3-.4.3.2.3,1.9,0,.9-1.6-1.3-1.9a26.05,26.05,0,0,1-3.3-.8c-2.5-.8-4-1-2.3-.4m98.7.2c-3.2.9-3.4,1-3.3,1.6.1.4.6.6,1.7.7,2.9.4,7.7,1.3,10.2,1.9,5.5,1.4,8.1,2,8.5,1.9.2-.1-1.9-.7-4.8-1.3s-5.8-1.3-6.5-1.5-2.8-.6-4.7-.9c-3.8-.6-4.3-1-2.2-1.6,3.6-1.1,4.3-1.3,3.7-1.3a8.6,8.6,0,0,0-2.6.5m-73.5,1.5a74.6,74.6,0,0,0-11,2.1c-5.7,1.7-6.7,2-6.5,2.2s2.5-.4,3.6-.9c.8-.3,7.9-2,10.8-2.5a90.52,90.52,0,0,1,16.6-.4c1.9.2,4,.4,4.7.5l1.3.1-1.1-.3a55.28,55.28,0,0,0-18.4-.8m38.2-.1c-6.8,1.1-6.2,1.4,1,.4a64.36,64.36,0,0,1,15.2,0c7.8.9,7.3.8,6,.5-3.8-1.1-17.7-1.7-22.2-.9m-18.5,1.3a5,5,0,0,0,1.4.3c.9.2,1.2.1.8-.1s-2.6-.5-2.2-.2m10.2.3a2.58,2.58,0,0,0-1.1.8c-.1.4-.1.4.3.1a7.13,7.13,0,0,1,1.9-.8c1-.3,1.2-.4.6-.4a3.61,3.61,0,0,0-1.7.3m34.7.4c1.7.4,3.1.7,3.2.7.3-.3-4.3-1.5-5.5-1.5-.4,0,.6.4,2.3.8m-89.6,0a16.51,16.51,0,0,0-2.6.8c-.9.4-.8.4,2.7-.3a33.74,33.74,0,0,1,3.6-.6l2-.3h-1.9a21.11,21.11,0,0,0-3.8.4m171.6,1.2a28.07,28.07,0,0,0-2.7,1.6,44,44,0,0,0,5.7-2.9c1.3-.8-.3-.2-3,1.3m-123.1-.9a5,5,0,0,0,1.5.5c.6,0-1.2-.9-1.9-.9-.5,0-.4.1.4.4m2.8.7a3.79,3.79,0,0,0,1.5,0c.4-.1.1-.1-.7-.1s-1.2.1-.8.1m42.7.2a13.89,13.89,0,0,0,1.9.6c.5.1,1.3.3,1.6.4s.6.1.4,0a13.64,13.64,0,0,0-4.3-1.5c-.4.1-.4.2.4.5m-101.3.8c-1.4.4-2.1.7-1.5.7,1.4-.1,5.6-1.4,4.7-1.4a9.49,9.49,0,0,0-3.2.7m12,1.1a27.39,27.39,0,0,0-2.8,1.1,25,25,0,0,1-2.5.9c-.7.3-2.6,1.1-4.3,1.8s-3.4,1.4-3.8,1.5c-.6.1-1.7,1.1-1.3,1.1.1,0,1.2-.5,2.5-1.1s4.8-2.1,7.9-3.2c6.5-2.6,7-2.7,6.3-2.7a12,12,0,0,0-2,.6m94.1-.2a2.26,2.26,0,0,0,1,.5,20.47,20.47,0,0,1,3,1.1c1.4.6,2.6,1,2.6,1a8.15,8.15,0,0,0-1.9-1c-4.6-2.1-5.8-2.5-4.7-1.6m-168.1,0c0,.3,4.8,2.5,5.3,2.5a.71.71,0,0,1,.6.3c.1.2.6.3,1.1.3s.4-.2-.9-.6a28.7,28.7,0,0,1-3.7-1.5c-1.1-.5-2.1-1-2.2-1-.1-.2-.2-.1-.2,0m56.8.3c-2.7.7-3.6,1.1-2.9,1.1s.9-.1,4.1-1.1c1.7-.5,1-.5-1.2,0m46.9,0c-2.6.4-4.7,1.1-3.2,1.1a1.49,1.49,0,0,0,1-.3c1-1,9.8-.7,9.6.3-.1.2.1.3.3.3a.68.68,0,0,0,.4-.6c0-.9-4.4-1.3-8.1-.8m83.4.1c1,.3,2.3.6,3,.8a3.4,3.4,0,0,0,1.6.2c.2-.1-.9-.5-2.5-.8-3.4-.8-4.9-1-2.1-.2m48.8.1c-.8.3-2.7,1-4.2,1.5a8.75,8.75,0,0,0-2.4,1,40.86,40.86,0,0,0,7-2.3c2-.9,1.7-1.1-.4-.2m-105.2.2c-1.5.2-1,.9,2.3,2.5,6.4,3.2,17.8,10.1,21.4,13.1.9.7,6.4,5.1,8.4,6.7,2.8,2.2,7.4,6.6,7.4,7.1,0,.7-6.6,6.7-7.4,6.7a40.51,40.51,0,0,1-4-3.8c-2-2.1-3.9-3.9-4.1-4.1-6.8-6.9-17.5-15.8-23.7-19.7-2-1.3-1-.3,1.1,1.1,7.1,4.7,14.5,11.1,23.6,20.2,5.7,5.7,7,6.8,7.4,6.6,1.5-.9,6.7-5.8,7-6.6s.2-1-1.3-2.4c-3.6-3.3-8.1-7.2-8.4-7.2a2.24,2.24,0,0,1-1-.7c-1.4-1.5-12.6-9.7-13.3-9.7a4.32,4.32,0,0,1-.9-.6c-1-.9-7.2-4.5-12.1-6.9-4-2-3.5-2.3,3-2.1,7.2.2,8.2.7,19.6,8.7,7,4.9,15,9.7,15.4,9.3a13.91,13.91,0,0,0-2.9-1.7,80.82,80.82,0,0,1-9.9-6.1c-4.4-3.2-10.9-7.6-12.9-8.6-3.3-1.9-9.5-2.6-14.7-1.8m-81.5,1.6c-1.5.4-2.4.7-2,.8a4.23,4.23,0,0,0,1.8-.3c.5-.2,1.7-.5,2.6-.8s1.3-.5,1-.4a14.08,14.08,0,0,0-3.4.7m47.7.2a8.32,8.32,0,0,0-2,1.1,30.82,30.82,0,0,0,4.8-2c.4-.4-1.1,0-2.8.9m95.7-.9a31.92,31.92,0,0,0,5.9,1.3c2.3.3,1-.1-2.3-.8s-3.9-.8-3.6-.5m-83.8,1c-.8.4-2.6,1.4-4.1,2.2s-3,1.6-3.6,2c-3.7,2.3-8.1,5.2-10.3,6.8-.9.6-2,1.4-2.4,1.7s-1.6,1.2-2.5,1.9a7.09,7.09,0,0,1-2,1.4c-.2,0-.4.1-.4.3a22.88,22.88,0,0,1-2.5,2.3c-5.6,4.7-9.7,8.8-9.6,9.7s7,6.8,7.9,6.8a6.44,6.44,0,0,0,1.8-1.9,112.7,112.7,0,0,1,11.9-12.7,122.17,122.17,0,0,1,10.9-9c5-3.7,6.7-5.2,2.7-2.4a130.74,130.74,0,0,0-24.3,22.1c-1.5,1.8-2.9,3.3-3.2,3.3-.9,0-7.5-5.5-7.5-6.3,0-1.4,12.2-11.9,20.7-17.9,4.6-3.3,16.3-10.2,17.1-10.2a2.79,2.79,0,0,0,.9-.5c.9-.7.1-.5-1.5.4m67.1.7a18.5,18.5,0,0,0,2.4,1.1c.8.3,3.3,1.3,5.5,2.2,5.5,2.3,10.3,4,9.6,3.4a1.87,1.87,0,0,0-1-.5,36,36,0,0,1-5.5-2.1c-.5-.2-1.6-.7-2.3-.9-1.8-.6-6.2-2.4-7.8-3.2s-2.2-.7-.9,0m-167.6,0c.4.4,2.4,1,4.7,1.4.8.1,2.4.5,3.6.7,2.7.5,15.2.5,18.3,0l4.4-.7a49.87,49.87,0,0,0,7.1-1.5c.2-.2-.3-.2-3,.4-13.7,2.6-26.7,2.4-34.7-.4-.6-.2-.7-.1-.4.1m193,.1c6.8,1.8,21.5,1.8,26.5,0,.9-.3,1.1-.3-4.8.5a70.41,70.41,0,0,1-15.9,0c-5.3-.7-7.2-.9-5.8-.5m-112,3.7c-2.6,1.8-6.1,4.2-7.8,5.4s-3.2,2.2-3.3,2.3-1.2.7-2.3,1.4a50.1,50.1,0,0,1-4.9,2.8,13.36,13.36,0,0,0-2.6,1.6c1,0,13.6-7.7,15.8-9.7.4-.3,2.7-1.9,5.2-3.6,4.9-3.3,5.3-3.6,4.8-3.5,0,0-2.3,1.4-4.9,3.3m30.3-2.9c-1.2.5-.7.6.6.1.8-.3,1.2-.3,2.4.3a3.09,3.09,0,0,0,1.6.5c.7-.6-3.3-1.5-4.6-.9m-3.9,1.7c-2.3,1.2-6.7,3.9-6.7,4.2s1.4-.5,1.6-.8,2.1-1.4,5-3a18.77,18.77,0,0,0,2.6-1.5,8.53,8.53,0,0,0-2.5,1.1m9.2-.2a8.21,8.21,0,0,0,2.3,1.2,8.74,8.74,0,0,0-2.5-1.5c-.2-.1,0,.1.2.3m107.5,1.3a37,37,0,0,1-5.3,2.3c-2,.6-3.2,1.3-2.3,1.3a54.68,54.68,0,0,0,7.9-3.3c3.4-1.7,3.2-1.1-.7,2.6-12.9,12.5-32,17.5-48.8,12.9a8.14,8.14,0,0,0-2.6-.5c-.1.1.5.3,1.2.5s1.8.5,2.4.6c15.8,4.5,35.1-.9,48-13.4,5-4.7,5.1-5.5.2-3m-175.6.4a67.41,67.41,0,0,1-7.3,3.1,3.34,3.34,0,0,0-1.2.5c-.5.4-5.1,1.5-10.5,2.4l-2.8.5,2.4-.2a69.72,69.72,0,0,0,10.9-2.2c.5-.2,2.1-.9,3.4-1.4,3.5-1.4,7.4-3.3,6.8-3.2-.2-.2-1,.1-1.7.5m-51.6-.1c0,.8,7,7.3,8.7,8.2.3.1.1-.1-.5-.5-3.3-2.5-7.5-6.9-7-7.2a14.3,14.3,0,0,1,3.3,1.3c2.9,1.4,7.7,3.1,8,2.9.1-.1-.4-.3-1.1-.5s-1.5-.5-1.9-.6-1.7-.7-2.9-1.2-3.1-1.3-4-1.8c-1.8-1-2.6-1.2-2.6-.6m122.5,0a4,4,0,0,0,1.3.9c1,.5,1,.5.4,0-1.1-.9-2-1.4-1.7-.9m67.3,3.5a36.92,36.92,0,0,0,6,1.3c.9,0-4-1.2-5.8-1.4-1.2-.2-1.2-.2-.2.1m27.6-.1c-.1.1-1.4.4-2.9.8s-2.4.6-2,.6A38.83,38.83,0,0,0,291,279c.1-.1-.2-.1-.7-.1a1.44,1.44,0,0,0-.9.2m-203.5,1.8a35.58,35.58,0,0,0,7.6,1.2c.8-.1-3.9-.9-7.6-1.4l-1.1-.1,1.1.3m184.3,0a80.11,80.11,0,0,0,12,0c1-.1-1.5-.2-6-.2s-7,0-6,.2m-173.7,1.5a17.09,17.09,0,0,0,3.2,0c.8-.1.1-.1-1.7-.1s-2.4,0-1.5.1m-15.1,1.9a33.85,33.85,0,0,0,4.7,3,9.7,9.7,0,0,0-2.3-1.6,10,10,0,0,0-2.4-1.4m6.2,3.8a7.43,7.43,0,0,0,1.6.8c.2,0-.2-.4-1-.8-1.8-1-2.1-1-.6,0m151.6-.3a2.11,2.11,0,0,0,1.1.5,1.14,1.14,0,0,1,.8.3,12.33,12.33,0,0,0,2.1.9,7.34,7.34,0,0,1,2.1.9,3.09,3.09,0,0,0,1.1.2c.5,0-.3-.4-1.8-.9a39.5,39.5,0,0,1-4.1-1.6c-1.8-.9-2.2-1-1.3-.3m-148.1,2a9.77,9.77,0,0,0,1.9.8c.5,0-2.5-1.5-3.1-1.5a6.58,6.58,0,0,1,1.2.7m40,.5c-12.2,4.4-25.1,4.7-35.1,1-2.5-.9-3-.8-.6.2,9.9,3.9,22.8,3.8,34.6-.3,2.6-.9,4.9-1.9,4.9-2.1s0-.1-.1-.1-1.8.6-3.7,1.3"/><path id="path3" class="cls-4" d="M283.56.91a13.86,13.86,0,0,0,1.7,1.9c1.4,1.3,1.5,1.4.4.2-1.3-1.4-1.4-2-.2-1.4a2.94,2.94,0,0,0,.9.3c.4,0-1.9-1.3-2.4-1.3-.2,0-.4.1-.4.3M85.66,3l-1,.4,1-.2,1-.2-1.3,1.3c-.7.7-1.2,1.3-1.1,1.3a9.24,9.24,0,0,0,1.6-1.4c1.5-1.4,1.4-1.9-.2-1.2m-1.8.7a7,7,0,0,1-1.3.5c-.9.2-.9.3-.3.3a4.71,4.71,0,0,0,1.6-.4c.4-.3.7-.5.5-.5a.44.44,0,0,0-.5.1M289,6.81a15.67,15.67,0,0,0,2.1,1.9,10,10,0,0,0-1.8-1.9,15.67,15.67,0,0,0-2.1-1.9c-.1-.1.7.8,1.8,1.9m-206.2.7-1.3,1.4,1.3-1.4a5.36,5.36,0,0,0,1.5-1.3c0-.2-.3,0-1.5,1.3m220.3,1a4.28,4.28,0,0,0,1.2.8c.6.4,1.1.5.9.4-.3-.4-2.1-1.4-2.1-1.2m-11.7.6a9.82,9.82,0,0,0,1.1,1.1l1.1,1-1-1.1c-.9-1-1.2-1.2-1.2-1m21,6.6a23.89,23.89,0,0,0,2.2,2.1,25.21,25.21,0,0,0-1.9-2.1,23.89,23.89,0,0,0-2.2-2.1c-.1-.1.8.9,1.9,2.1m7.6,2.4c-.1.2-.2.4-.1.4a20.91,20.91,0,0,1,1.7,1.5l1.6,1.4-1.5-1.6c-.8-.9-1.2-1.5-.9-1.4.8.3,2.4.6,1.8.3-2-.8-2.4-.9-2.6-.6m-263.4,2-1,1.1,1.1-.9c1-.9,1.2-1.2,1-1.2a3.73,3.73,0,0,0-1.1,1m-6.2.5c-.4.2-.4.3,0,.4s.1.5-.7,1.2c-1,1-1,.9.4-.1,1.8-1.4,2-2.6.3-1.5m-2,.9c-.4.3-.7.5-.5.5a2.5,2.5,0,0,0,1.1-.5c.4-.3.7-.5.5-.5a2.5,2.5,0,0,0-1.1.5m-5.1,2.6-1,.8,1.1-.7c.6-.4,1.1-.8,1.1-.8,0-.2-.2-.2-1.2.7m3.8,1.2a18.81,18.81,0,0,0-1.6,2.5c-.3.7-.3.7,0,.2.2-.3,1-1.5,1.8-2.5a6,6,0,0,0,1.2-1.9,14.07,14.07,0,0,0-1.4,1.7m255.6-1a9.82,9.82,0,0,0,1.1,1.1l1.1,1-1-1.1c-.9-1-1.2-1.2-1.2-1m30.6,1.5a11.83,11.83,0,0,0,1.8,1.6,14.25,14.25,0,0,0-1.4-1.6,11.83,11.83,0,0,0-1.8-1.6,5.42,5.42,0,0,0,1.4,1.6m-265.8,1.8c-.6.8-.9,1.5-.8,1.5a9.77,9.77,0,0,0,1.2-1.5c.6-.8.9-1.5.8-1.5a5.61,5.61,0,0,0-1.2,1.5m253.8.5c.3.5.6,1,.7,1s-.1-.4-.3-1-.6-1-.7-1,.1.5.3,1m6.5.3c.3.5.6,1,.7,1s-.1-.4-.3-1-.6-1-.7-1,0,.5.3,1m-20.1,1.7a10.14,10.14,0,0,0,1.4,1.3c.1,0-.4-.6-1.1-1.3a10.14,10.14,0,0,0-1.4-1.3c-.1,0,.5.5,1.1,1.3m-271.5.4-1,1.1,1.1-1a5.07,5.07,0,0,0,1.1-1.1c0-.2-.3,0-1.2,1m301.2-.3c1.3,1.6,1.4,1.7,1,1a6.34,6.34,0,0,0-1.1-1.3c-.7-.6-.7-.6.1.3m-35.6,2a5.67,5.67,0,0,0,.3,1.5c.2.5.2.3.1-.5l-.2-1.1,1.1,1,1.1,1-1.1-1.4c-1.3-1.6-1.3-1.6-1.3-.5m-232.2,1.1a9.13,9.13,0,0,1-1,1.6c-.2.3.1.1.6-.5l.9-1-.2,1.3c-.2,1.1-.1,1.2.1.5a3.85,3.85,0,0,0,.2-1.9v-1.1l-.6,1.1M58.36,38a6.74,6.74,0,0,0-1.3,1.5,13.31,13.31,0,0,0,1.6-1.5,6.74,6.74,0,0,0,1.3-1.5,13.31,13.31,0,0,0-1.6,1.5m249,.5a10.14,10.14,0,0,0,1.4,1.3c.1,0-.4-.6-1.1-1.3a10.14,10.14,0,0,0-1.4-1.3c-.1,0,.4.6,1.1,1.3m-244.3,3-2.6,2.7,2.6-2.7c2.6-2.3,2.9-2.7,2.7-2.7a29.2,29.2,0,0,0-2.7,2.7m256.6.2a10.14,10.14,0,0,0,1.4,1.3c.1,0-.4-.6-1.1-1.3a10.14,10.14,0,0,0-1.4-1.3c-.1,0,.4.6,1.1,1.3m28.4.5a21.89,21.89,0,0,0,2.2,4.6c.1-.1-.2-.7-.5-1.4-.9-1.8-.8-2,.4-.7.5.6.8.8.7.5-.7-1-2.8-3.4-2.8-3m-324.8,3.6a12,12,0,0,0-2.1,2.8c0,.1.4-.2.8-.7l.8-.9-.5,1.3c-.5,1.4-.6,1.9-.2,1.2a22.8,22.8,0,0,0,1.5-3.9,1.24,1.24,0,0,1-.3.2m4.2.9a4.25,4.25,0,0,0-.2,1.1c0,.3.2.1.3-.4.4-1,.3-1.5-.1-.7m20,.6-1,1.1,1.1-1c.6-.5,1.2-1,1.3-1.1s0-.1-.2-.1a7.41,7.41,0,0,0-1.2,1.1m280.5-.1c.4.7.4.8-.1.6-.3-.1-.5-.1-.3.1.3.5,1.1.4,1.1-.1a1.65,1.65,0,0,0-.5-.9c-.6-.5-.6-.4-.2.3M44,48.91c-.3,1.2-.1,1.3.8.5.5-.4.6-.6.2-.5s-.6,0-.7-.4-.1-.2-.3.4m20.1,1a5.9,5.9,0,0,0-.9,1.3c0,.1.4-.3,1-1,.9-1.1,1.1-1.5.9-1.5a11.27,11.27,0,0,1-1,1.2m249.8,6a15.67,15.67,0,0,0,2.1,1.9,10,10,0,0,0-1.8-1.9,15.67,15.67,0,0,0-2.1-1.9,16.92,16.92,0,0,0,1.8,1.9m32.3,1.7c0,2,.1,2.9.1,1.9a22.85,22.85,0,0,0,0-3.7c0-1.1-.1-.3-.1,1.8m-303.3-.1-2.1,2.2,2.1-2.2a19.83,19.83,0,0,0,2.3-2.1c-.1-.3-.4.1-2.3,2.1m288.8.1a11.83,11.83,0,0,0,1.8,1.6,14.25,14.25,0,0,0-1.4-1.6,11.83,11.83,0,0,0-1.8-1.6,12.08,12.08,0,0,0,1.4,1.6m-275.4,2.3-1.6,1.7,1.6-1.7c1.7-1.4,1.9-1.7,1.7-1.7a23.43,23.43,0,0,0-1.7,1.7m-29.9.9c0,.8.1,1.1.1.7a3.79,3.79,0,0,0,0-1.5c0-.3-.1,0-.1.8m308-.2a6.37,6.37,0,0,0,1.3,1.1c.1,0-.3-.5-.9-1.1a6.37,6.37,0,0,0-1.3-1.1c-.1,0,.3.5.9,1.1m-294.6,0c-1.4,1.6-1.8,2.2-1.7,2.2a11.39,11.39,0,0,0,1.4-1.5c1.2-1.5,1.4-2.1.3-.7m278.5,5.3c0,.6.1.7.2.3.1-.6.2-.6.8,0l.7.6-.6-.9c-.3-.5-.7-.9-.9-.9s-.2.4-.2.9m-264.6,1.6a5.65,5.65,0,0,0-1.1,1.5l-.8,1.3.8-1,.8-1v2l.3-1.1c.6-1.2.5-2,0-1.7m268.1,1.7a12.64,12.64,0,0,0,1.9,2c.3.2-.2-.5-1.2-1.6a20.57,20.57,0,0,0-1.9-2,10.66,10.66,0,0,0,1.2,1.6m-276.2-.1c-1,.9-1,1-.3.5.9-.6,2-1.7,1.7-1.7l-1.4,1.2m-18.8,1.4c0,.6.1.9.1.6a2.05,2.05,0,0,0,0-1.1c-.1-.4-.1-.1-.1.5m305,.1a20.73,20.73,0,0,0,3.6,3.1,20.57,20.57,0,0,0-2-1.9c-1.1-1-1.8-1.5-1.6-1.2m13.7.6c0,.6.1.9.1.6a2.05,2.05,0,0,0,0-1.1c0-.4-.1-.2-.1.5m-307.3,3.9-1.3,1.4,1.3-1.4c1.4-1.1,1.6-1.4,1.4-1.4a16.26,16.26,0,0,0-1.4,1.4m298.7-.1a10.14,10.14,0,0,0,1.4,1.3c.1,0-.4-.6-1.1-1.3a10.14,10.14,0,0,0-1.4-1.3c-.1,0,.4.6,1.1,1.3m-291.1,1.2a6.74,6.74,0,0,0-1.3,1.5,13.31,13.31,0,0,0,1.6-1.5,6.74,6.74,0,0,0,1.3-1.5,13.31,13.31,0,0,0-1.6,1.5M35.16,78l-1.3,1.4,1.3-1.4c1.4-1.1,1.6-1.4,1.4-1.4a16.26,16.26,0,0,1-1.4,1.4m315.8.1c0,.9.1,1.2.1.7a4.29,4.29,0,0,0,0-1.6c0-.4-.1,0-.1.9m-323.6.3c0,.9.1,1.2.1.7a4.29,4.29,0,0,0,0-1.6c0-.4-.1,0-.1.9m312.9.4a6.37,6.37,0,0,0,1.3,1.1c.1,0-.3-.5-.9-1.1a6.37,6.37,0,0,0-1.3-1.1c-.1,0,.3.4.9,1.1m-298.9,1.5-2.3,2.3,2.3-2.3a17.78,17.78,0,0,0,2.4-2.3c0-.2-.3.1-2.4,2.3m291.4-.6a6.37,6.37,0,0,0,1.3,1.1c.1,0-.3-.5-.9-1.1a6.37,6.37,0,0,0-1.3-1.1c-.1,0,.3.5.9,1.1m2.9,2.6a6.37,6.37,0,0,0,1.3,1.1c.1,0-.3-.5-.9-1.1a6.37,6.37,0,0,0-1.3-1.1c-.1,0,.3.5.9,1.1m28.3,2.1c0,1.9.1,2.6.1,1.7a19.3,19.3,0,0,0,0-3.4c0-.9-.1-.1-.1,1.7m-18.4-.7a6.31,6.31,0,0,0,.3,2.2c.3.3.2-2.1-.1-3.3-.2-.6-.2-.3-.2,1.1m5.1-.1c0,.7.1,1,.1.6a2.85,2.85,0,0,0,0-1.3c0-.3-.1,0-.1.7m-25.5,2.1c.3.5.6,1,.7,1s-.1-.4-.3-1-.6-1-.7-1,.1.5.3,1m-290.3,1.1-1.6,1.7,1.6-1.7c1.7-1.4,1.9-1.7,1.7-1.7a22.48,22.48,0,0,0-1.7,1.7m-12.3.9c0,.8.1,1.1.1.7a3.79,3.79,0,0,0,0-1.5c-.1-.4-.1,0-.1.8m5.5-.7c-.5.5-.7.6-.9.2s-.3-.2-.3.3c0,1,.3.9,1.2-.3,1-1,.9-1.2,0-.2m4.2,2.7-1,1.1,1.1-1a5.07,5.07,0,0,0,1.1-1.1c0-.2-.3,0-1.2,1m331.4,1.5c0,.6.1.9.1.6a2.05,2.05,0,0,0,0-1.1c-.1-.4-.1-.1-.1.5m4.8,1.5c0,.5.1.7.2.5s.3-.3.6.2.4.5.3-.1c-.4-1.3-1.2-1.7-1.1-.6m-340.2,2.4c-.4.5-.6,1-.5,1a3,3,0,0,0,.9-1c.4-.5.6-1,.5-1a4.89,4.89,0,0,0-.9,1m340.2,1.6c0,1.5.1,2.1.1,1.4a13.1,13.1,0,0,0,0-2.8c0-.7-.1-.1-.1,1.4M4.66,94.61c0,.1-.4,1.1-.8,2.3s-.7,2.1-.5,2a.55.55,0,0,0,.3-.5,5.4,5.4,0,0,1,.4-1.2l.4-.9.2,1.3c.2,1.1.2,1,.3-.9a8.78,8.78,0,0,0-.1-2.2c-.2,0-.2,0-.2.1m346,2.8c0,1,.1,1.4.1.9a5.44,5.44,0,0,0,0-1.8c0-.5-.1-.1-.1.9m-3.6-.4a1.65,1.65,0,0,0,.5.9c.5.6.5.6.3-.1s-.8-1.4-.8-.8M40,99.61c-.4.5-.6,1-.5,1a3,3,0,0,0,.9-1c.4-.5.6-1,.5-1a3,3,0,0,0-.9,1m-17.5.4c0,.6.1.9.1.6a2.05,2.05,0,0,0,0-1.1c0-.4-.1-.2-.1.5m307.3.8a7.64,7.64,0,0,0-.2,2.2l.1,2,.2-1.8.2-1.8.5,1.2c.7,1.6.9,1.5.4-.2-.5-1.5-.9-1.9-1.2-1.6m21.2,1.6c0,.7.1,1,.1.6a2.85,2.85,0,0,0,0-1.3c0-.4-.1,0-.1.7m-308.1.7a3.08,3.08,0,0,0-.3,1.3c0,.4.1.3.3-.2.4-1.2.6-.3.8,2.4l.1,2.3.1-2.8c-.1-3-.4-4.1-1-3m-37.8,1.1c0,.6.1.9.1.6a2.05,2.05,0,0,0,0-1.1c-.1-.4-.1-.2-.1.5m16.8,2.6c0,.6.1.9.1.6a2.05,2.05,0,0,0,0-1.1c0-.4-.1-.2-.1.5m9.8,4.6c-.5.8-.7,1.2-.4,1a6.83,6.83,0,0,0,1.5-2.4,5.12,5.12,0,0,0-1.1,1.4m-9.2,1.3c0,.4-.2.5-.6.4s-.5-.1-.2.2c.5.5,1.2-.1,1-.7-.1-.4-.2-.3-.2.1m20.8.5c0,.6.1.9.1.6a2.05,2.05,0,0,0,0-1.1c-.1-.4-.1-.1-.1.5m-2.4,13.1a6.27,6.27,0,0,0,.1,1.1c.1,0,.2-.5.3-1.1s0-1.1-.1-1.1-.3.5-.3,1.1m311.9,2a1.55,1.55,0,0,0-.2.8c0,.3-.1.6-.3.6s-.3-.2-.3-.5a.6.6,0,0,0-.3-.6c-.2-.1-.1.4.1,1.1.4,1.5.8,1.6,1,.4.4-2.2.4-2.2,0-1.8m-330.7,2.3c-.3,1.1-.4,1.1-.7.6s-.3-.4-.3.4c0,1.7.5,1.5,1.1-.3.6-2,.5-2.5-.1-.7m309.8,13c-.4.8-.4,1,.1,1,.3,0,.5-.3.5-.8,0-1-.2-1-.6-.2m-290.1,2.2a1.69,1.69,0,0,0-.2.9c0,.5.1.6.3.2s.4-.3.7.2.4.5.2-.2c-.4-1-.7-1.4-1-1.1m308.6,2.5c0,1.2.1,1.7.1,1a8.84,8.84,0,0,0,0-2.3c0-.5-.1.1-.1,1.3m22.5-1.6a5.07,5.07,0,0,0-.2,1.3c0,.4.1.5.2.3.1-.4.2-.4.5,0,.4.6.4-.6,0-1.5-.3-.6-.3-.6-.5-.1m-349.3,5.5c0,2,.1,2.7.1,1.7a21.64,21.64,0,0,0,0-3.6c-.1-.9-.1,0-.1,1.9m18.1-1.4c0,.8.1,1.1.1.7a3.79,3.79,0,0,0,0-1.5c-.1-.4-.1,0-.1.8m290.9,0c0,.8.1,1.1.1.7a3.79,3.79,0,0,0,0-1.5c0-.4-.1,0-.1.8m-331.9-.5c-.3.9-.2,1.4.3,1.4s.4-.2.3-.9c-.3-1.1-.4-1.1-.6-.5m373,2.2c0,1.4.1,2,.1,1.2a11.29,11.29,0,0,0,0-2.6c0-.6-.1,0-.1,1.4m-23.3-.3c0,.7.1,1,.1.6a2.85,2.85,0,0,0,0-1.3c-.1-.3-.1,0-.1.7m-340.5,2.3c.3.4.7,1,.9,1.3s.4.5.4.2a3.3,3.3,0,0,0-.9-1.3c-.5-.5-.7-.6-.4-.2m-7.1,1.3a2.5,2.5,0,0,0,.5,1.1c.3.4.5.7.5.5a2.5,2.5,0,0,0-.5-1.1c-.3-.5-.5-.7-.5-.5m370.6,2.6c0,.7.1,1,.1.6a2.85,2.85,0,0,0,0-1.3c-.1-.4-.1,0-.1.7m-327.4.9c.3,2,.8,3.2.5,1.5a8.08,8.08,0,0,0-.5-2.1q-.15-.6,0,.6m-37.8,6.4a4.89,4.89,0,0,0,.9,1c.1,0-.1-.4-.5-1a4.89,4.89,0,0,0-.9-1c-.1,0,.2.4.5,1m9.4-.6a9.82,9.82,0,0,0,1.1,1.1l1.1.9-.9-1.1c-1-.9-1.3-1.1-1.3-.9m13.1,6.9c0,2.3.1,3.2.1,2s.1-3.1,0-4.2-.1-.2-.1,2.2m17.4-1c0,.7.1,1,.1.6a2.85,2.85,0,0,0,0-1.3c0-.3-.1,0-.1.7m310.6.3a6.74,6.74,0,0,0-1.3,1.5,13.31,13.31,0,0,0,1.6-1.5,6.74,6.74,0,0,0,1.3-1.5,13.31,13.31,0,0,0-1.6,1.5m-33.2.5c0,.6.1.9.1.6a2.05,2.05,0,0,0,0-1.1c-.1-.4-.1-.1-.1.5m-312.4-.2a9.82,9.82,0,0,0,1.1,1.1l1.1,1-1-1.1c-.9-1.1-1.2-1.3-1.2-1m334.5,1.9c-.7.9-1.4,1.9-1.6,2.1s-.2.4-.1.4a38.54,38.54,0,0,0,2.9-3.8c.6-1-.1-.2-1.2,1.3M18.06,177a15.67,15.67,0,0,0,2.1,1.9,10,10,0,0,0-1.8-1.9,15.67,15.67,0,0,0-2.1-1.9,15.64,15.64,0,0,0,1.8,1.9m8.6-.7a4.89,4.89,0,0,0,.9,1c.1,0-.1-.4-.5-1a3,3,0,0,0-.9-1c-.1,0,.1.5.5,1m22.1.4c0,.6.1.9.1.6a2.05,2.05,0,0,0,0-1.1c-.1-.4-.1-.2-.1.5m294.1,0c0,.6.1.9.1.6a2.05,2.05,0,0,0,0-1.1c0-.4-.1-.2-.1.5m-6.1,2.4c0,1.1.1,1.5.1.9a6,6,0,0,0,0-1.9c0-.6-.1-.1-.1,1m-12-.2c0,.6.1.9.1.6a2.05,2.05,0,0,0,0-1.1c0-.4-.1-.1-.1.5m-302,2.8a23.89,23.89,0,0,0,2.2,2.1,25.21,25.21,0,0,0-1.9-2.1,23.89,23.89,0,0,0-2.2-2.1,25.21,25.21,0,0,0,1.9,2.1m7.1-1c0,.6,1,1.8,1.3,1.6s.3-.5.3-.9c0-.7,0-.7-.3-.1s-.3.6-.8-.2c-.2-.4-.5-.6-.5-.4m288.5.9a4.13,4.13,0,0,0-.9,1.2c-.1.3.1.1.4-.3.7-.9,1.3-.7.7.3a2.61,2.61,0,0,0-.3,1.1c0,.2.3-.2.6-1,1-2.2.7-2.7-.5-1.3m18.4,1.9c0,.8.1,1.1.1.7a3.79,3.79,0,0,0,0-1.5c0-.4-.1,0-.1.8m-282.3,0a2.77,2.77,0,0,0,.5,1.2l.5.8-.2-1c-.3-1.2-.3-1.2,1.7,1.3s1.8,2-.2-.7c-1.4-1.8-2.3-2.5-2.3-1.6m289.9,2.8c-.9,1.1-1.3,1.7-1.2,1.7a3.67,3.67,0,0,0,1-1.1c1-1.2,1.1-1.6.2-.6m-294.6,1.5c0,.9.1,1.2.1.7a4.29,4.29,0,0,0,0-1.6c-.1-.4-.2,0-.1.9m-20.2,1a6.37,6.37,0,0,0,1.3,1.1c.1,0-.3-.5-.9-1.1a6.37,6.37,0,0,0-1.3-1.1c-.1,0,.3.5.9,1.1m31.4,2a4,4,0,0,0,.9,1.1c.2,0-.6-1.2-1.1-1.6s-.3-.1.2.5m-28.8,1.1a7.86,7.86,0,0,0,1.5,1.6,5.81,5.81,0,0,0-1.2-1.6,7.86,7.86,0,0,0-1.5-1.6,5.81,5.81,0,0,0,1.2,1.6m291.6,0c0,.6.1.9.1.6a2.05,2.05,0,0,0,0-1.1c0-.4-.1-.2-.1.5m16.8-.4c-1,1.2-2,2.8-1.6,2.5a7.66,7.66,0,0,0,1.3-1.7c.9-1.4,1.1-1.9.3-.8m-325.4,2.3a10.14,10.14,0,0,0,1.4,1.3c.1,0-.4-.6-1.1-1.3a10.14,10.14,0,0,0-1.4-1.3c-.1,0,.4.6,1.1,1.3m341.4-.2-1,1.1,1.1-1c1-.9,1.2-1.2,1-1.2a5.07,5.07,0,0,0-1.1,1.1m-4.8,4.8-1.9,2,1.9-2c1.2-1,2.1-1.9,2.1-1.9,0-.3-.4,0-2.1,1.9m8.6-1.2c-.2.3-.3.6-.2.7.3.3.9-.4.8-.9-.2-.2-.3-.2-.6.2m-340.2,1.6a18.22,18.22,0,0,0,1.9,1.8,9.7,9.7,0,0,0-1.6-1.8,18.22,18.22,0,0,0-1.9-1.8,9.7,9.7,0,0,0,1.6,1.8m-6.8,1.3c0,1,.9,4.3,1.3,4.5.1.1,0-.7-.4-1.7-.8-2.5-.6-2.8.6-.7,1.4,2.4,1.3,1.8-.1-.8-1.3-2.3-1.4-2.5-1.4-1.3m24.9.7c1.8,2.5,2.1,2.7,1.3,1.4a14.1,14.1,0,0,0-1.4-1.8c-.6-.6-.6-.6.1.4m2.3,0a8.72,8.72,0,0,0,.6,1.5c.3.6.6,1,.6.8a8.72,8.72,0,0,0-.6-1.5c-.3-.6-.6-1-.6-.8m318.8,1.3c-.3.9-.4,1.6-.1,1.4s.8-2.2.6-2.2-.4.3-.5.8M17,204.81a4.89,4.89,0,0,0,.9,1c.1,0-.2-.4-.5-1a4.89,4.89,0,0,0-.9-1c-.1,0,.1.5.5,1m334.9,3.2-3.1,3.2,3.1-3.2c3-2.8,3.4-3.2,3.2-3.2a40.65,40.65,0,0,0-3.2,3.2m-330.6,2a15.67,15.67,0,0,0,2.1,1.9,10,10,0,0,0-1.8-1.9c-1.1-1-2-1.9-2.1-1.9s.8.8,1.8,1.9m13.6.4a2.76,2.76,0,0,0,1.3.8c.4,0,.3,0-1.1-.9l-1.1-.7.9.8m2.9,1.8c1.8,1.6,2.4,1.9.9.5a10.32,10.32,0,0,0-1.7-1.3c-.2-.1.2.3.8.8m-13.6.3a15.81,15.81,0,0,0,2.8,2.3,11.39,11.39,0,0,0-1.5-1.4c-.9-.7-1.4-1.1-1.3-.9m3.1,2.5a3,3,0,0,0,1,.9c.5.4,1,.6,1,.5a3,3,0,0,0-1-.9c-.5-.4-1-.6-1-.5m-5.5,4.3c0,.2.5.7,1.1,1.3l1.1.9-1-1.1c-.5-.6-1-1.2-1.1-1.3s-.1,0-.1.2m313.6.4c-.6.3-1,.6-.9.6a6.48,6.48,0,0,0,2.2-1.1c0-.2,0-.2-1.3.5m-42.9.6c-.3.3-.4.4-.1.2s.4-.2.3.4c-.3,1,0,.9.6-.2.4-1.1.1-1.3-.8-.4m23.6,1.8c-.8,1.7-.5,2.1.8,1l.9-.8-.9.5c-1,.6-1.1.5-.4-.9.3-.5.5-1,.4-1.1s-.4.5-.8,1.3m-279-1c.3.3,2.2,1.2,2.2,1a6,6,0,0,0-2.1-1.1c-.2,0-.2,0-.1.1m43.6.5a3,3,0,0,0,.7,1.1l.7.8-.4-.8-.4-.8.8.6c1.2.8,1.4.7.3-.3s-1.7-1.1-1.7-.6M58.16,224c.2.8-.1.9-1,.4a2.52,2.52,0,0,0-.9-.4c-.1.1.4.4,1,.8q2,1,1.2-.6c-.3-.5-.4-.5-.3-.2m227.6,1c-.5.4-.8.8-.6.8s.6-.4,1-.8c1-1,.8-1-.4,0m59.5.9-1.3,1.4,1.3-1.4a5.36,5.36,0,0,0,1.5-1.3c-.1-.2-.3,0-1.5,1.3m-318.1.3a10.14,10.14,0,0,0,1.4,1.3c.1,0-.4-.6-1.1-1.3a10.14,10.14,0,0,0-1.4-1.3c-.1,0,.4.6,1.1,1.3m255.8,1.3-1.5,1.3,1.5-1.2c1.3-1.1,1.7-1.4,1.5-1.4l-1.5,1.3m-252.4,2.4a23.89,23.89,0,0,0,2.2,2.1s-.8-.9-1.9-2.1a23.89,23.89,0,0,0-2.2-2.1,25.21,25.21,0,0,0,1.9,2.1m311.4-.7-1.3,1.4,1.3-1.4a5.36,5.36,0,0,0,1.5-1.3c0-.3-.3,0-1.5,1.3m-2.9,2.6-1.3,1.4,1.3-1.4a5.36,5.36,0,0,0,1.5-1.3c0-.3-.3,0-1.5,1.3m-244.8,0a6.37,6.37,0,0,0,1.3,1.1c.1,0-.3-.5-.9-1.1a6.37,6.37,0,0,0-1.3-1.1c-.1,0,.3.5.9,1.1m182.1,1.9-2.6,2.7,2.6-2.7c2.6-2.3,2.9-2.7,2.7-2.7a29.2,29.2,0,0,0-2.7,2.7m59.8.4c-1,.9-1,1-.3.5.9-.6,2-1.7,1.7-1.7a13.13,13.13,0,0,1-1.4,1.2m-237.8,1.5a10.14,10.14,0,0,0,1.4,1.3c.1,0-.4-.6-1.1-1.3a10.14,10.14,0,0,0-1.4-1.3c-.1,0,.4.5,1.1,1.3m-60.4.7a4.35,4.35,0,0,0,1.2,1.1c.7.5,1.1.7,1,.5-.3-.4-2.2-1.8-2.2-1.6m233.8,1.6-1.6,1.7,1.6-1.7c1.7-1.4,1.9-1.7,1.7-1.7l-1.7,1.7m32-.1c-.5.5-.7.9-.5.8.4-.2,1.8-1.8,1.5-1.8a7.84,7.84,0,0,1-1,1m-231.8.4a9.82,9.82,0,0,0,1.1,1.1l1.1.9-.9-1.1c-1-.9-1.3-1.1-1.3-.9m228.9,2.1-1.5,1.5,1.6-1.4c.9-.8,1.7-1.4,1.8-1.5s0-.1-.1-.1a9.79,9.79,0,0,0-1.8,1.5m-196.1,1.4c1.4,1.4,2.6,2.6,2.7,2.6a22.24,22.24,0,0,0-2.4-2.6c-1.4-1.4-2.6-2.6-2.7-2.6a22.24,22.24,0,0,0,2.4,2.6m178.4-1.6c-.3.5-.4,1-.3,1s.4-.4.7-1,.4-1,.3-1-.5.5-.7,1m15.6.2-1.1,1.2,1.1-1.2c1.2-.9,1.5-1.2,1.2-1.2l-1.2,1.2m-255.3-.1a4.52,4.52,0,0,1,1.1.9l1,.8-.8-.9a2.48,2.48,0,0,0-1.1-.9c-.2,0-.2,0-.2.1m220.2,5.8-5.8,5.9,5.8-5.9c3.3-3.1,6-5.8,6-5.8,0-.3-.6.3-6,5.8m-191.9-5c.3.4,2.1,1.8,2.1,1.6a4.35,4.35,0,0,0-1.2-1.1c-.6-.5-1-.7-.9-.5m4.1,1.2a6.37,6.37,0,0,0,1.3,1.1c.1,0-.3-.5-.9-1.1a6.37,6.37,0,0,0-1.3-1.1c-.1,0,.3.5.9,1.1m255.5,1.6c-.9.9-1.2,1.6-.4.8.6-.5.7.3.1.9-.2.2-.3.5-.2.5.2.2,1.6-2.4,1.5-2.8,0-.1-.5.1-1,.6m-50.5.6-.6,1.1.7-.8c.6-.7.9-1.3.6-1.3,0-.1-.3.4-.7,1m-238.6,1.3a39.4,39.4,0,0,0,3.3,5c.2,0,0-.3-1.3-2.2-1.2-1.7-.9-2.1.6-.8a3.58,3.58,0,0,0,1.4,1,21.65,21.65,0,0,0-3.6-3.2c-.5-.3-.6-.3-.4.2m69.7,2.8a10.14,10.14,0,0,0,1.4,1.3c.1,0-.4-.6-1.1-1.3a10.14,10.14,0,0,0-1.4-1.3c-.1,0,.4.6,1.1,1.3m217.4-.1c-.5.7-.7,1.1-.5,1,.4-.3,1.8-2.1,1.6-2.1s-.6.4-1.1,1.1M90,249.81a10.14,10.14,0,0,0,1.4,1.3c.1,0-.4-.6-1.1-1.3a10.14,10.14,0,0,0-1.4-1.3c-.1,0,.4.6,1.1,1.3m24.1.9c.3.5,2.3,1.9,2.3,1.6a8.47,8.47,0,0,0-1.3-1.2c-.9-.6-1.3-.8-1-.4m211.4,2.4-1.6,1.7,1.6-1.7c1-.8,1.8-1.6,1.8-1.6,0-.2-.3,0-1.8,1.6m-43,.1c-.3.3-.4.4-.2.3s1-.3,1.6-.5c1.1-.2,1.1-.2.2-.3a2.77,2.77,0,0,0-1.6.5m-188.6.9c.2.5.1.6-.7.4s-.8-.1.1.2c1.3.4,1.7.1.9-.6q-.75-.9-.3,0m160.1.4-1,.8,1.1-.7c.6-.4,1.1-.8,1.1-.8,0-.2-.2-.1-1.2.7m-203.4,2.3a18.22,18.22,0,0,0,1.9,1.8,9.7,9.7,0,0,0-1.6-1.8A18.22,18.22,0,0,0,49,255a18.8,18.8,0,0,0,1.6,1.8m271.1.2-1.6,1.7,1.6-1.7c1-.8,1.8-1.6,1.8-1.6-.1-.3-.4,0-1.8,1.6m-53.8-.2-1,.8,1.2-.7a4.28,4.28,0,0,0,1.2-.8c.1-.4-.5-.1-1.4.7m23.3,1a4.29,4.29,0,0,0,1.6,0c.4-.1,0-.1-.9-.1s-1.2,0-.7.1m-7.5.6a2.05,2.05,0,0,0,1.1,0c.3-.1.1-.1-.6-.1-.5,0-.8.1-.5.1m-229.8,1.3c.7.7,1.3,1.2,1.3,1.1a8.28,8.28,0,0,0-1.2-1.3l-1.3-1.1,1.2,1.3m32.1-.3a4.29,4.29,0,0,0,1.6,0c.4-.1,0-.1-.9-.1s-1.2,0-.7.1m9.5.7a2.85,2.85,0,0,0,1.3,0c.3-.1,0-.1-.7-.1s-1,0-.6.1m23.7,2.6c.4.3.3.4-.3.5s-.7.2,0,.1,1-.6.3-.8c-.3-.1-.3-.1,0,.2m113.5.4c-.7.4-.4.9.5.9.4,0,.5-.1.3-.2s-.3-.3,0-.6c.4-.5.1-.6-.8-.1m-173.5.6A6.78,6.78,0,0,0,61,265c.9.6,1.6.9,1.5.7a10.42,10.42,0,0,0-1.8-1.3c-.9-.5-1.6-.9-1.5-.7m82.1.1c.6.4.6.5,0,.6-.3.1-.1.2.5.2s1.1-.1,1.1-.3-.5-.5-1.1-.6c-.9-.3-1-.3-.5.1m63.3-.2a2.85,2.85,0,0,0,1.3,0c.3-.1,0-.1-.7-.1s-1,0-.6.1m5.7,0a2.05,2.05,0,0,0,1.1,0c.3-.1.1-.1-.6-.1s-.9,0-.5.1m-43.9.3a17.09,17.09,0,0,0,3.2,0c.8-.1.1-.1-1.7-.1s-2.4.1-1.5.1m47.6,0a2.85,2.85,0,0,0,1.3,0c.3-.1,0-.1-.7-.1s-1,.1-.6.1m-13.9,4.9a2.85,2.85,0,0,0,1.3,0c.3-.1,0-.1-.7-.1s-1,0-.6.1m3,0a9.63,9.63,0,0,0,2.4,0c.7-.1.1-.1-1.2-.1s-1.8,0-1.2.1m-29.9,3.8c-1.2.7-1.1.9.1.3.5-.3,1-.6,1-.7s-.1-.1-1.1.4m27.6-.4a8.75,8.75,0,0,0,2.6,1.3,6.92,6.92,0,0,0-2.4-1.4c-.2,0-.3.1-.2.1m45,1.1a3.1,3.1,0,0,0,1.1.5c.2,0,0-.2-.5-.5a3.1,3.1,0,0,0-1.1-.5c-.1,0,0,.2.5.5m-160,.3a3.79,3.79,0,0,0,1.5,0c.4-.1.1-.1-.7-.1s-1.2.1-.8.1m11.5.1a4.29,4.29,0,0,0,1.6,0c.4-.1,0-.1-.9-.1s-1.2,0-.7.1m203,1.7a7.75,7.75,0,0,0-2.4,1.6,13.27,13.27,0,0,0,1.8-.9l1.6-.9-2.1,2.2-2.1,2.2,2.1-1.9c3-2.6,3.4-3.5,1.1-2.3m-226.7,1.5a8.7,8.7,0,0,0,.9,1.1c.5.4.5.4.2-.1a1.31,1.31,0,0,1-.3-1c.1-.2-.2-.5-.5-.5-.6-.1-.6,0-.3.5m92,.1c-1.1.7-1.5,1.2-.5.6.7-.4,1.9-1.3,1.7-1.3a6.09,6.09,0,0,0-1.2.7m43.9.1a4.28,4.28,0,0,0,1.2.8c.6.4,1.1.5,1,.4-.3-.4-2.2-1.4-2.2-1.2m-6.4,3.9a3,3,0,0,0,1,.9c.6.4,1,.6,1,.5a3,3,0,0,0-1-.9c-.6-.4-1-.6-1-.5m12.6,0a11.48,11.48,0,0,0,1.9,1.5l1.9,1.2a11.48,11.48,0,0,0-1.9-1.5,6,6,0,0,0-1.9-1.2m58.5.4a19.3,19.3,0,0,0,3.4,0c.9-.1.2-.1-1.7-.1s-2.7.1-1.7.1m-42.7,2a3,3,0,0,0,1.1.7c.3,0-.2-.4-1.3-1-.4-.2-.3-.1.2.3m-89,1c-1.7,1.1-3,2.1-1.9,1.5a35.43,35.43,0,0,0,3.9-2.6c0-.2,0-.2-2,1.1m24.8-.1c-1,.9-1,1-.3.5.9-.6,2-1.7,1.7-1.7a15.37,15.37,0,0,0-1.4,1.2m-12.7.3-.9.8,1.1-.7c.6-.4,1.1-.8,1.1-.8-.1-.3-.4-.1-1.3.7m10.1,1.8-1,1.1,1.1-.9a5.07,5.07,0,0,0,1.1-1.1c-.1-.3-.3,0-1.2.9M138,287c-.6.3-1,.6-.9.6a6.48,6.48,0,0,0,2.2-1.1c0-.2,0-.2-1.3.5m10.8,2.2-1.6,1.4,1.7-1.4c1.5-1.2,1.9-1.6,1.6-1.6,0,.1-.8.7-1.7,1.6m-58.4-.1a3.1,3.1,0,0,0,1.1.5c.2,0,0-.2-.5-.5a3.1,3.1,0,0,0-1.1-.5c-.1,0,.1.3.5.5m123,.3c.5.6,2.3,2,2.3,1.7a6.92,6.92,0,0,0-1.4-1.2c-.8-.6-1.2-.8-.9-.5m14.9.9a9.82,9.82,0,0,0,1.1,1.1l1.1,1-1-1.1c-.9-1-1.2-1.2-1.2-1m23.8,1.2c.9.4,1.2.4,1,0-.1-.2-.5-.3-.9-.3-.7.1-.7.1-.1.3m-34.8,1.4,1.5,1.5c.3.1,0-.2-1.5-1.5l-1.4-1.5,1.4,1.5m14.2.4a6.37,6.37,0,0,0,1.3,1.1c.1,0-.3-.5-.9-1.1a6.37,6.37,0,0,0-1.3-1.1c-.1,0,.3.5.9,1.1m27.5-.6a3.79,3.79,0,0,0,1.5,0c.4-.1.1-.1-.7-.1s-1.2.1-.8.1m7.7,0a2.85,2.85,0,0,0,1.3,0c.3-.1,0-.1-.7-.1s-1,.1-.6.1m-123.8,1.6a6.74,6.74,0,0,0-1.3,1.5,13.31,13.31,0,0,0,1.6-1.5,6.74,6.74,0,0,0,1.3-1.5,8.24,8.24,0,0,0-1.6,1.5m12.7.2-1.6,1.7,1.6-1.7c1-.8,1.8-1.6,1.8-1.6,0-.2-.3.1-1.8,1.6m79.8,2.4a6.37,6.37,0,0,0,1.3,1.1c.1,0-.3-.5-.9-1.1a6.37,6.37,0,0,0-1.3-1.1,5,5,0,0,0,.9,1.1m-95.7.6c-1.5,1.5-1.6,1.9-.8,2.5.5.4.5.4.1-.3s-.3-.8,1-2.2a6.74,6.74,0,0,0,1.3-1.5,8.75,8.75,0,0,0-1.6,1.5m84.4,2.2s1.1,1.2,2.5,2.5l2.5,2.4-2.4-2.5c-2.3-2.3-2.6-2.6-2.6-2.4m-76.6,3.9-1,1.1,1.1-1c1-.9,1.2-1.2.9-1.2,0,0-.4.5-1,1.1m82.4.8c-.8.4-.8.4-.1.5a1.43,1.43,0,0,0,1.1-.5c.5-.7.1-.7-1,0m-85,.5c.7.6,1,.6,1.3.3s.3-.4-.2-.2a.81.81,0,0,1-.9-.3,1,1,0,0,0-.7-.5c-.2,0,.1.3.5.7"/><path id="path4" class="cls-5" d="M301.46,31.81c0,.6.1.6.2.1s.2-.5.7-.2.5.4.1-.1c-.7-.8-1.1-.7-1,.2m-278,13.4a1.21,1.21,0,0,0-.1,1c.2.3.4.1.6-.4.5-1,0-1.5-.5-.6m3,12.7c0,1,.1,1.4.1.9a5.44,5.44,0,0,0,0-1.8c-.1-.5-.1-.1-.1.9m0,5.6c0,.9.1,1.2.1.7a4.29,4.29,0,0,0,0-1.6c-.1-.3-.2.1-.1.9m27.2,3.8c-.1.2-.1.3.1.2s.4,0,.5.4.2.4.2-.2c0-.8-.4-1-.8-.4m286.1,1.6c.3.6.6.9.7.9.2-.2-.6-1.9-.9-1.9s-.1.5.2,1m6.3,16.3c0,.5.1.9.3.9.4,0,.4-.2,0-1.1-.2-.7-.3-.6-.3.2M9,87.31c0,.8.1,1.1.1.7a3.79,3.79,0,0,0,0-1.5c-.1-.3-.1,0-.1.8m17.7.2c0,.4.1.9.3,1s.2-.3.1-.8c-.2-1.2-.4-1.3-.4-.2m341.4,4.6c0,.4.1.4.2.1s.3-.3.6,0,.4.3.3-.1c-.3-.7-1.1-.7-1.1,0M4.46,94.51a.45.45,0,0,0,0,.5c.1.1.2,0,.2-.3s.2.1.3.8l.2,1.3v-1.2c.1-1.1-.3-1.8-.7-1.1m37.2,53.8c0,.7.1,1,.1.6a2.85,2.85,0,0,0,0-1.3c-.1-.3-.2,0-.1.7m276.9,32.8c-.4.5-.4.5.1.1a1.08,1.08,0,0,1,.9-.2c.2.1.3.1.3-.1,0-.6-.9-.4-1.3.2m41.8,15.7c-.4.7-.4.7.1.3s.5-.3.7,0,.2.1.2-.3-.1-.7-.2-.7c-.3,0-.6.3-.8.7m-347.3,3.1c0,.8.1.8.2.2.1-.4.3-.6.5-.5s.3.1.1-.2c-.4-.7-.8-.4-.8.5m283.2,42.9a7.22,7.22,0,0,0-1.3,1.7c0,.2,0,.2.1.1s.7-.8,1.5-1.7,1.3-1.5,1.2-1.5a7,7,0,0,0-1.5,1.4m-124.7,21.1a2.85,2.85,0,0,0,1.3,0c.3-.1,0-.1-.7-.1s-1,.1-.6.1M299,278l-1.3,1.4L299,278c1.4-1.1,1.6-1.4,1.4-1.4L299,278m-62.3,20.3a3.74,3.74,0,0,1-1.1,1.6l-1,1.1,1.2-1.2c.7-.7,1.2-1.4,1.1-1.6s-.1-.3-.2.1"/></g></g></g></svg>